<svg width="25" height="24" viewBox="0 0 25 24" fill="none" xmlns="http://www.w3.org/2000/svg">
<path d="M16.8724 14.2181C16.4362 14.2181 16.0813 13.8532 16.0813 13.4049C16.0813 12.9566 16.4362 12.592 16.8724 12.592C17.3087 12.592 17.6636 12.9566 17.6636 13.4049C17.6636 13.8533 17.3087 14.2181 16.8724 14.2181ZM8.1276 14.2181C7.69135 14.2181 7.33649 13.8532 7.33649 13.4049C7.33649 12.9566 7.69128 12.592 8.1276 12.592C8.56385 12.592 8.91871 12.9566 8.91871 13.4049C8.91871 13.8533 8.56392 14.2181 8.1276 14.2181ZM17.1562 9.32094L18.7374 6.50687C18.7809 6.42921 18.7927 6.33698 18.7701 6.25041C18.7475 6.16384 18.6924 6.09002 18.617 6.04513C18.5414 6.00042 18.4516 5.98834 18.3674 6.01153C18.2832 6.03473 18.2113 6.09131 18.1676 6.16886L16.5666 9.01849C15.3422 8.4444 13.9672 8.12454 12.5 8.12454C11.0328 8.12454 9.65776 8.4444 8.43344 9.01849L6.83239 6.16886C6.78869 6.09131 6.71685 6.03473 6.63261 6.01153C6.54837 5.98834 6.45862 6.00042 6.38304 6.04513C6.30751 6.08997 6.2524 6.1638 6.22983 6.25039C6.20725 6.33697 6.21905 6.42922 6.26263 6.50687L7.84384 9.32094C5.12867 10.8384 3.27167 13.663 3 17H22C21.7281 13.663 19.8711 10.8384 17.1562 9.32087" fill="white"/>
</svg>
