<svg width="48" height="48" viewBox="0 0 48 48" fill="none" xmlns="http://www.w3.org/2000/svg">
<g id="android-4 1">
<rect width="48" height="48" rx="24" fill="#800BF5"/>
<path id="Vector" d="M29.0628 25.7124C28.5577 25.7124 28.1468 25.2811 28.1468 24.7513C28.1468 24.2215 28.5577 23.7905 29.0628 23.7905C29.568 23.7905 29.9789 24.2214 29.9789 24.7513C29.9789 25.2811 29.568 25.7124 29.0628 25.7124ZM18.9372 25.7124C18.4321 25.7124 18.0212 25.2811 18.0212 24.7513C18.0212 24.2215 18.432 23.7905 18.9372 23.7905C19.4423 23.7905 19.8532 24.2214 19.8532 24.7513C19.8532 25.2811 19.4424 25.7124 18.9372 25.7124ZM29.3913 19.9247L31.2222 16.599C31.2726 16.5072 31.2862 16.3982 31.2601 16.2959C31.234 16.1936 31.1702 16.1064 31.0828 16.0533C30.9953 16.0005 30.8914 15.9862 30.7938 16.0136C30.6963 16.041 30.6131 16.1079 30.5625 16.1996L28.7087 19.5673C27.291 18.8888 25.6989 18.5108 24 18.5108C22.3011 18.5108 20.709 18.8888 19.2914 19.5673L17.4375 16.1996C17.3869 16.1079 17.3037 16.041 17.2062 16.0136C17.1086 15.9862 17.0047 16.0005 16.9172 16.0533C16.8298 16.1063 16.7659 16.1936 16.7398 16.2959C16.7137 16.3982 16.7273 16.5073 16.7778 16.599L18.6087 19.9247C15.4648 21.7181 13.3146 25.0562 13 29H35C34.6852 25.0563 32.535 21.7181 29.3913 19.9247" fill="white"/>
</g>
</svg>
