<svg width="25" height="24" viewBox="0 0 25 24" fill="none" xmlns="http://www.w3.org/2000/svg">
<path d="M13 15.9982C15.2091 15.9982 17 14.2074 17 11.9982C17 9.78909 15.2091 7.99823 13 7.99823C10.7909 7.99823 9 9.78909 9 11.9982C9 14.2074 10.7909 15.9982 13 15.9982Z" fill="white"/>
<path d="M12.9998 8H19.9269C19.2249 6.7838 18.2152 5.77384 16.9991 5.07168C15.783 4.36952 14.4035 3.9999 12.9993 4C11.5951 4.0001 10.2156 4.36991 8.99963 5.07224C7.78366 5.77457 6.77403 6.78467 6.07227 8.00097L9.53579 14L9.53889 13.9992C9.18656 13.3916 9.00062 12.7019 8.99984 11.9995C8.99905 11.2972 9.18343 10.6071 9.53439 9.9987C9.88536 9.39033 10.3905 8.88524 10.9989 8.53434C11.6073 8.18344 12.2975 7.99914 12.9998 8Z" fill="url(#paint0_linear_209_2019)"/>
<path d="M13.0006 15.1666C14.7495 15.1666 16.1673 13.7489 16.1673 12C16.1673 10.2511 14.7495 8.83331 13.0006 8.83331C11.2517 8.83331 9.83398 10.2511 9.83398 12C9.83398 13.7489 11.2517 15.1666 13.0006 15.1666Z" fill="#1A73E8"/>
<path d="M16.463 14.001L12.9995 20C14.4037 20.0002 15.7832 19.6306 16.9993 18.9286C18.2155 18.2265 19.2253 17.2166 19.9273 16.0005C20.6293 14.7843 20.9988 13.4048 20.9986 12.0006C20.9983 10.5963 20.6284 9.21693 19.9259 8.00104H12.9989L12.998 8.00414C13.7004 8.00278 14.3907 8.18661 14.9993 8.5371C15.608 8.88758 16.1135 9.39233 16.4648 10.0005C16.8162 10.6086 17.0011 11.2986 17.0007 12.001C17.0004 12.7033 16.8149 13.3931 16.463 14.001Z" fill="url(#paint1_linear_209_2019)"/>
<path d="M9.53563 14.001L6.0721 8.00201C5.36981 9.21801 5.00005 10.5975 5 12.0017C4.99995 13.4059 5.36961 14.7854 6.07181 16.0015C6.77401 17.2175 7.78399 18.2273 9.00022 18.9292C10.2164 19.6311 11.596 20.0004 13.0003 20L16.4638 14.001L16.4615 13.9987C16.1115 14.6076 15.6072 15.1135 14.9993 15.4654C14.3915 15.8172 13.7016 16.0026 12.9993 16.0028C12.2969 16.0031 11.6069 15.8181 10.9988 15.4667C10.3907 15.1153 9.88605 14.6097 9.53563 14.001Z" fill="url(#paint2_linear_209_2019)"/>
<defs>
<linearGradient id="paint0_linear_209_2019" x1="6.07227" y1="9" x2="19.9269" y2="9" gradientUnits="userSpaceOnUse">
<stop stop-color="#D93025"/>
<stop offset="1" stop-color="#EA4335"/>
</linearGradient>
<linearGradient id="paint1_linear_209_2019" x1="11.9065" y1="19.893" x2="18.8339" y2="7.89457" gradientUnits="userSpaceOnUse">
<stop stop-color="#FCC934"/>
<stop offset="1" stop-color="#FBBC04"/>
</linearGradient>
<linearGradient id="paint2_linear_209_2019" x1="13.8654" y1="19.5005" x2="6.93813" y2="7.50202" gradientUnits="userSpaceOnUse">
<stop stop-color="#1E8E3E"/>
<stop offset="1" stop-color="#34A853"/>
</linearGradient>
</defs>
</svg>
