<svg width="86" height="22" viewBox="0 0 86 22" fill="none" xmlns="http://www.w3.org/2000/svg">
<path d="M45.7066 5.51564C45.0361 5.51564 44.4709 5.27984 44.0239 4.81566C43.5806 4.36448 43.333 3.74248 43.3441 3.10748C43.3441 2.42978 43.5732 1.85605 44.0239 1.40115C44.469 0.936975 45.0343 0.701172 45.7048 0.701172C46.3679 0.701172 46.9331 0.936975 47.3875 1.40115C47.8382 1.8709 48.0673 2.44463 48.0673 3.10748C48.0599 3.78704 47.8308 4.36076 47.3875 4.8138C46.9424 5.2817 46.3771 5.51564 45.7066 5.51564ZM25.7556 5.51564C25.0999 5.51564 24.531 5.28355 24.0655 4.82494C23.6037 4.36819 23.3691 3.79075 23.3691 3.10934C23.3691 2.42792 23.6037 1.85048 24.0655 1.39373C24.5218 0.935119 25.0907 0.703029 25.7556 0.703029C26.0807 0.703029 26.3966 0.768014 26.6995 0.899841C26.9969 1.02795 27.2389 1.20249 27.4181 1.41601L27.4624 1.46985L26.9618 1.96374L26.9101 1.90247C26.6275 1.56455 26.2488 1.3993 25.7483 1.3993C25.3012 1.3993 24.9115 1.55898 24.5901 1.87462C24.2669 2.19212 24.1025 2.60802 24.1025 3.11119C24.1025 3.61436 24.2669 4.03027 24.5901 4.34777C24.9115 4.66341 25.3012 4.82309 25.7483 4.82309C26.2248 4.82309 26.6257 4.66341 26.9378 4.34777C27.1225 4.16209 27.2371 3.90215 27.2777 3.57351H25.6725V2.8791H27.9667L27.9759 2.94223C27.9925 3.0592 28.0092 3.17989 28.0092 3.29129C28.0092 3.93186 27.8171 4.44989 27.4365 4.83237C27.0043 5.28541 26.4391 5.51564 25.7556 5.51564ZM52.2824 5.41724H51.575L49.4083 1.93218L49.4268 2.55975V5.41538H48.7193V0.801435H49.5265L49.5487 0.836713L51.5861 4.11939L51.5676 3.49368V0.801435H52.2824V5.41724V5.41724ZM40.3906 5.41724H39.6739V1.49585H38.4307V0.801435H41.6318V1.49585H40.3887V5.41724H40.3906ZM37.847 5.41724H37.1322V0.801435H37.847V5.41724ZM33.8295 5.41724H33.1147V1.49585H31.8715V0.801435H35.0726V1.49585H33.8295V5.41724ZM31.419 5.40981H28.6778V0.801435H31.419V1.49585H29.3945V2.76213H31.2213V3.44911H29.3945V4.7154H31.419V5.40981ZM44.5485 4.33848C44.868 4.6597 45.2559 4.82123 45.7066 4.82123C46.1703 4.82123 46.5489 4.66341 46.8648 4.33848C47.1788 4.02284 47.3376 3.60879 47.3376 3.10934C47.3376 2.60988 47.1788 2.19397 46.8666 1.88019C46.5471 1.55898 46.1573 1.39744 45.7085 1.39744C45.2448 1.39744 44.8662 1.55526 44.5522 1.88019C44.2381 2.19583 44.0793 2.60988 44.0793 3.10934C44.0793 3.60879 44.2363 4.0247 44.5485 4.33848Z" fill="white"/>
<path fill-rule="evenodd" clip-rule="evenodd" d="M43.2774 11.8614C41.5319 11.8614 40.117 13.1926 40.117 15.0289C40.117 16.8485 41.5411 18.1965 43.2774 18.1965C45.023 18.1965 46.4379 16.8559 46.4379 15.0289C46.4379 13.1926 45.023 11.8614 43.2774 11.8614ZM43.2774 16.9413C42.3225 16.9413 41.5005 16.1467 41.5005 15.0215C41.5005 13.8796 42.3243 13.1016 43.2774 13.1016C44.2324 13.1016 45.0544 13.8796 45.0544 15.0215C45.0562 16.1541 44.2324 16.9413 43.2774 16.9413ZM36.382 11.8614C34.6365 11.8614 33.2216 13.1926 33.2216 15.0289C33.2216 16.8485 34.6457 18.1965 36.382 18.1965C38.1276 18.1965 39.5425 16.8559 39.5425 15.0289C39.5425 13.1926 38.1257 11.8614 36.382 11.8614ZM36.382 16.9413C35.4271 16.9413 34.6051 16.1467 34.6051 15.0215C34.6051 13.8796 35.4289 13.1016 36.382 13.1016C37.337 13.1016 38.159 13.8796 38.159 15.0215C38.159 16.1541 37.337 16.9413 36.382 16.9413ZM28.177 12.8287V14.1693H31.3781C31.2802 14.9212 31.0327 15.4764 30.654 15.857C30.1849 16.3286 29.4608 16.8411 28.1844 16.8411C26.2172 16.8411 24.6785 15.2443 24.6785 13.2669C24.6785 11.2895 26.2172 9.6927 28.1844 9.6927C29.2465 9.6927 30.0205 10.1142 30.5949 10.6526L31.5407 9.70199C30.7427 8.93331 29.6806 8.34473 28.1918 8.34473C25.4931 8.34473 23.2285 10.5542 23.2285 13.2595C23.2285 15.9721 25.4913 18.1742 28.1918 18.1742C29.6492 18.1742 30.7427 17.6952 31.6072 16.7928C32.4883 15.9071 32.7672 14.6576 32.7672 13.6494C32.7672 13.3356 32.7432 13.0534 32.6933 12.8138H28.1752C28.177 12.812 28.177 12.8287 28.177 12.8287ZM61.7378 13.8722C61.4736 13.1611 60.6757 11.8539 59.0391 11.8539C57.4173 11.8539 56.0689 13.1369 56.0689 15.0215C56.0689 16.8002 57.4025 18.189 59.1961 18.189C60.6369 18.189 61.4755 17.3034 61.8209 16.7835L60.7514 16.0631C60.3968 16.5923 59.9036 16.9395 59.2035 16.9395C58.4961 16.9395 58.001 16.6164 57.6722 15.9796L61.8856 14.225C61.8856 14.2268 61.7378 13.8722 61.7378 13.8722ZM57.4413 14.9305C57.4081 13.7069 58.3871 13.0849 59.0871 13.0849C59.6394 13.0849 60.0994 13.3579 60.2564 13.7552L57.4413 14.9305ZM54.0186 17.9997H55.4021V8.69379H54.0186V17.9997ZM51.7466 12.565H51.6967C51.3845 12.1918 50.7916 11.8539 50.0343 11.8539C48.4624 11.8539 47.0142 13.2446 47.0142 15.0308C47.0142 16.8095 48.455 18.1835 50.0343 18.1835C50.7824 18.1835 51.3845 17.8437 51.6967 17.4631H51.7466V17.918C51.7466 19.1267 51.1038 19.7784 50.0675 19.7784C49.2197 19.7784 48.6933 19.1657 48.479 18.6532L47.2765 19.1583C47.6219 19.9938 48.5436 21.028 50.0657 21.028C51.6875 21.028 53.0618 20.068 53.0618 17.7267V12.0433H51.754V12.565C51.7558 12.565 51.7466 12.565 51.7466 12.565ZM50.158 16.9413C49.2031 16.9413 48.4051 16.1392 48.4051 15.0308C48.4051 13.913 49.2031 13.1035 50.158 13.1035C51.1038 13.1035 51.8371 13.9223 51.8371 15.0308C51.8463 16.1392 51.1056 16.9413 50.158 16.9413ZM68.2157 8.69379H64.9075V17.9997H66.291V14.4756H68.2176C69.7489 14.4756 71.2543 13.3597 71.2543 11.5884C71.2543 9.8171 69.7544 8.69379 68.2157 8.69379ZM68.2564 13.1759H66.2892V9.98235H68.2564C69.2926 9.98235 69.8782 10.842 69.8782 11.5791C69.8782 12.3088 69.2852 13.1759 68.2564 13.1759ZM76.7994 11.8446C75.7946 11.8446 74.7583 12.2921 74.3298 13.2669L75.5563 13.7793C75.8204 13.2669 76.3044 13.0924 76.816 13.0924C77.5327 13.0924 78.2568 13.5231 78.2734 14.2918V14.3902C78.0259 14.2491 77.4829 14.0337 76.8327 14.0337C75.5083 14.0337 74.1654 14.7615 74.1654 16.1262C74.1654 17.3758 75.2515 18.1779 76.4614 18.1779C77.3905 18.1779 77.9022 17.7564 78.2217 17.2681H78.2716V17.9885H79.6052V14.4236C79.6052 12.7637 78.3787 11.8446 76.7994 11.8446ZM76.6258 16.9413C76.1732 16.9413 75.5397 16.7185 75.5397 16.1467C75.5397 15.4262 76.3302 15.1533 77.0044 15.1533C77.614 15.1533 77.9022 15.2851 78.2642 15.4671C78.1645 16.3026 77.4625 16.9339 76.6258 16.9413ZM84.4706 12.0433L82.8821 16.0798H82.8322L81.1864 12.0433H79.6976L82.1672 17.6859L80.7597 20.8219H82.2005L86 12.0433H84.4706ZM72.0172 17.9997H73.4007V8.69379H72.0172V17.9997Z" fill="white"/>
<path fill-rule="evenodd" clip-rule="evenodd" d="M0.539199 1.27279C0.32493 1.50488 0.201172 1.85951 0.201172 2.32369V18.7872C0.201172 19.2514 0.32493 19.606 0.546588 19.8288L0.603849 19.879L9.78047 10.6548V10.4487L0.596461 1.22266L0.539199 1.27279Z" fill="url(#paint0_linear_4008_1296)"/>
<path fill-rule="evenodd" clip-rule="evenodd" d="M12.8342 13.7387L9.77344 10.6621V10.4467L12.8342 7.37012L12.9007 7.41097L16.5211 9.47935C17.5573 10.0661 17.5573 11.0353 16.5211 11.6294L12.9007 13.6978L12.8342 13.7387Z" fill="url(#paint1_linear_4008_1296)"/>
<path fill-rule="evenodd" clip-rule="evenodd" d="M12.9002 13.6981L9.77294 10.5547L0.539062 19.8364C0.87709 20.2003 1.44416 20.2412 2.07773 19.8866L12.9002 13.6981Z" fill="url(#paint2_linear_4008_1296)"/>
<path fill-rule="evenodd" clip-rule="evenodd" d="M12.9002 7.41074L2.07773 1.23158C1.44416 0.867668 0.875243 0.917799 0.539062 1.28172L9.77294 10.5542L12.9002 7.41074Z" fill="url(#paint3_linear_4008_1296)"/>
<path opacity="0.12" fill-rule="evenodd" clip-rule="evenodd" d="M16.5223 11.522L12.8262 13.6313L12.8927 13.6981L16.5131 11.6297C17.0321 11.3327 17.287 10.9427 17.287 10.5547C17.2556 10.9112 16.9915 11.2491 16.5223 11.522Z" fill="#140F14"/>
<path opacity="0.25" fill-rule="evenodd" clip-rule="evenodd" d="M2.07787 1.33959L16.5207 9.58713C16.9899 9.85264 17.254 10.1999 17.2946 10.5545C17.2946 10.1664 17.0397 9.77652 16.5207 9.47944L2.07787 1.2319C1.04162 0.635891 0.201172 1.13349 0.201172 2.32365V2.43134C0.201172 1.23933 1.04162 0.751008 2.07787 1.33959Z" fill="white"/>
<defs>
<linearGradient id="paint0_linear_4008_1296" x1="8.95734" y1="2.14607" x2="-5.75205" y2="6.04519" gradientUnits="userSpaceOnUse">
<stop stop-color="#00A0FF"/>
<stop offset="0.00657" stop-color="#00A1FF"/>
<stop offset="0.2601" stop-color="#00BEFF"/>
<stop offset="0.5122" stop-color="#00D2FF"/>
<stop offset="0.7604" stop-color="#00DFFF"/>
<stop offset="1" stop-color="#00E3FF"/>
</linearGradient>
<linearGradient id="paint1_linear_4008_1296" x1="17.8724" y1="10.5544" x2="-0.0503336" y2="10.5544" gradientUnits="userSpaceOnUse">
<stop stop-color="#FFE000"/>
<stop offset="0.4087" stop-color="#FFBD00"/>
<stop offset="0.7754" stop-color="#FFA500"/>
<stop offset="1" stop-color="#FF9C00"/>
</linearGradient>
<linearGradient id="paint2_linear_4008_1296" x1="11.1997" y1="12.2652" x2="-0.691266" y2="32.1754" gradientUnits="userSpaceOnUse">
<stop stop-color="#FF3A44"/>
<stop offset="1" stop-color="#C31162"/>
</linearGradient>
<linearGradient id="paint3_linear_4008_1296" x1="-1.78613" y1="-4.2036" x2="3.51893" y2="4.68868" gradientUnits="userSpaceOnUse">
<stop stop-color="#32A071"/>
<stop offset="0.0685" stop-color="#2DA771"/>
<stop offset="0.4762" stop-color="#15CF74"/>
<stop offset="0.8009" stop-color="#06E775"/>
<stop offset="1" stop-color="#00F076"/>
</linearGradient>
</defs>
</svg>
