<svg width="142" height="26" viewBox="0 0 142 26" fill="none" xmlns="http://www.w3.org/2000/svg">
<path d="M138.836 7.43164V12.0167H132.441V7.43164H129.295V19.5504H132.441V14.6576H138.836V19.5504H141.999V7.43164H138.836Z" fill="white"/>
<path fill-rule="evenodd" clip-rule="evenodd" d="M83.7637 7.15723C84.7732 7.15723 85.8333 7.69188 86.3549 8.79359L91.5039 19.5515H88.1554L87.028 16.9916H80.4993L79.3719 19.5515H76.0234L81.1724 8.79359C81.694 7.69188 82.7541 7.15723 83.7637 7.15723ZM83.5114 10.1705L81.5763 14.5611H85.9512L84.0162 10.1705C83.9657 10.0247 83.8479 9.99229 83.7638 9.99229C83.6796 9.99229 83.5787 10.0409 83.5114 10.1705Z" fill="white"/>
<path d="M48.8488 5.24512C47.368 5.24512 46.4258 6.00659 45.7359 7.52954L41.6302 16.6348L37.5245 7.52954C36.8346 6.00659 35.8923 5.24512 34.4116 5.24512C33.0318 5.24512 31.6016 6.20101 31.6016 8.25862V19.5511H34.7481V8.58265L38.8875 17.6231C39.4427 18.8869 40.3345 19.6807 41.6302 19.6807C42.9258 19.6807 43.8176 18.8869 44.3729 17.6231L48.5122 8.58265V19.5511H51.6588V8.27482C51.6588 6.20101 50.2286 5.24512 48.8488 5.24512Z" fill="white"/>
<path d="M57.1756 16.9906C57.0241 16.9906 56.9063 16.8772 56.9063 16.7314V14.5765H64.7643V12.0977H56.9063V10.2507C56.9063 10.1049 57.0241 9.99149 57.1756 9.99149H64.9494V7.43164H55.6275C54.5338 7.43164 53.7598 8.30653 53.7598 9.23002V17.7197C53.7598 18.6432 54.5506 19.518 55.6275 19.518H64.9494V16.9582H57.1756V16.9906Z" fill="white"/>
<path d="M70.2989 19.5508V10.2673C70.2989 10.1215 70.4167 10.0081 70.5681 10.0081H78.342V7.44824H69.0201C67.9264 7.44824 67.1523 8.32313 67.1523 9.24662V19.5508H70.2989Z" fill="white"/>
<path fill-rule="evenodd" clip-rule="evenodd" d="M120.545 7.25488C125.307 7.25488 127.209 9.23148 127.209 13.4763C127.209 17.6563 125.274 19.6653 120.512 19.6653H119.468C114.707 19.6653 112.771 17.6563 112.771 13.4763C112.771 9.23148 114.656 7.25488 119.435 7.25488H120.545ZM119.485 17.1535H120.494C123.102 17.1535 124.146 16.0194 124.146 13.4758V13.4596C124.146 10.9969 123.17 9.78179 120.494 9.78179H119.485C116.725 9.78179 115.833 10.9969 115.833 13.4596V13.4758C115.833 16.0194 116.86 17.1535 119.485 17.1535Z" fill="white"/>
<path fill-rule="evenodd" clip-rule="evenodd" d="M97.7443 5.53613H103.987C108.631 5.53613 110.499 7.80436 110.516 11.7576C110.516 12.3732 110.465 12.9403 110.381 13.4749C109.893 16.2778 108.177 17.9952 103.819 17.9952H102.456V19.5505H99.3092V17.9952H97.9294C93.5713 17.9952 91.855 16.2778 91.367 13.4749C91.2661 12.9403 91.2324 12.3732 91.2324 11.7576C91.2324 7.80436 93.0833 5.53613 97.7443 5.53613ZM99.2899 15.4349H97.8428C95.7058 15.4349 94.9486 14.6734 94.4775 13.4745C94.2924 13.0047 94.2924 12.4214 94.2924 11.7571C94.2924 9.18108 95.5375 8.07937 97.3548 8.07937H99.2899V15.4349ZM107.251 13.4745C106.78 14.6734 106.006 15.4349 103.886 15.4349H102.439V8.07937H104.374C106.191 8.07937 107.436 9.16488 107.436 11.7571C107.436 12.4214 107.436 13.0047 107.251 13.4745Z" fill="white"/>
<path fill-rule="evenodd" clip-rule="evenodd" d="M14.1837 13.3783V0.854492C20.4095 1.58356 25.2387 6.70327 25.2556 12.8923C25.2556 19.5998 19.6018 25.0435 12.6356 25.0435C12.2486 25.0435 11.8616 25.0273 11.4746 24.9949V14.4962C11.4746 14.4314 11.5251 14.3666 11.6092 14.3666H13.1573C13.7125 14.3666 14.1837 13.9292 14.1837 13.3783ZM13.9119 19.5352C13.0369 19.5352 12.3302 18.8547 12.3302 18.0123C12.3302 17.1698 13.0369 16.4893 13.9119 16.4893C14.7869 16.4893 15.4936 17.1698 15.4936 18.0123C15.4936 18.8547 14.7869 19.5352 13.9119 19.5352ZM16.0331 18.0123C16.0331 18.8547 16.7398 19.5352 17.6148 19.5352C18.4898 19.5352 19.1965 18.8547 19.1965 18.0123C19.1965 17.1698 18.4898 16.4893 17.6148 16.4893C16.7398 16.4893 16.0331 17.1698 16.0331 18.0123ZM19.7345 18.0123C19.7345 18.8547 20.4412 19.5352 21.3162 19.5352C22.1911 19.5352 22.8979 18.8547 22.8979 18.0123C22.8979 17.1698 22.1911 16.4893 21.3162 16.4893C20.4412 16.4893 19.7345 17.1698 19.7345 18.0123Z" fill="white"/>
<path fill-rule="evenodd" clip-rule="evenodd" d="M0 12.909C0 6.20155 5.65372 0.757812 12.6199 0.757812H12.6536V12.7794C12.6536 12.8604 12.5863 12.909 12.519 12.909H11.4589H10.9373C10.3988 12.9252 9.96132 13.3627 9.94449 13.8811V24.7848C4.25712 23.6021 0 18.7416 0 12.909ZM8.61488 9.24774C8.61488 10.0902 9.32159 10.7707 10.1966 10.7707C11.0716 10.7707 11.7783 10.0902 11.7783 9.24774C11.7783 8.40525 11.0716 7.72479 10.1966 7.72479C9.32159 7.72479 8.61488 8.40525 8.61488 9.24774Z" fill="white"/>
</svg>
