<svg width="80" height="23" viewBox="0 0 80 23" fill="none" xmlns="http://www.w3.org/2000/svg">
<path d="M7.77309 0.857422C6.30233 0.857422 4.55839 2.38291 3.12007 4.94741C1.62101 7.6035 0.726562 10.8915 0.726562 13.7467C0.726562 17.927 2.90181 22.1424 7.77309 22.1424C12.6399 22.1424 14.8194 17.927 14.8194 13.7467C14.8194 10.8915 13.9255 7.6035 12.4338 4.94741C10.9827 2.38291 9.23961 0.857422 7.77309 0.857422Z" fill="white"/>
<path d="M45.8242 7.12836H50.7569V21.0017H56.0416V7.12836H60.9741V1.99707H45.8244L45.8242 7.12836Z" fill="white"/>
<path d="M72.2479 7.12925H79.9997V1.99805H72.2485C65.1265 1.99805 61.3242 5.81787 61.3242 11.5003C61.3242 17.1826 65.1265 21.0025 72.2485 21.0025H79.9997V15.8713H72.2479C68.9526 15.8713 66.7852 14.6004 66.7852 11.5003C66.7852 8.40019 68.9526 7.12925 72.2479 7.12925Z" fill="white"/>
<path d="M35.0749 1.99707L32.2576 13.3406L29.4399 1.99707H20.1035V21.0017H25.3884V5.54345L29.2278 21.0017H35.2872L39.129 5.53384V21.0017H44.4137V1.99707H35.0749Z" fill="white"/>
</svg>
