<svg width="24" height="24" viewBox="0 0 24 24" fill="none" xmlns="http://www.w3.org/2000/svg">
<path d="M12.0182 5.01823C13.2412 5.01823 14.2325 5.97585 14.2325 7.15736C14.2325 8.33886 13.2412 9.29649 12.0182 9.29649C10.7952 9.29649 9.80392 8.33886 9.80392 7.15736C9.80392 5.97585 10.7958 5.01823 12.0182 5.01823ZM12.0182 12.3147C14.9665 12.3147 17.3567 9.99976 17.3567 7.15736C17.3567 4.31495 14.9605 2 12.0182 2C9.07594 2 6.67966 4.31495 6.67966 7.15736C6.67966 9.99976 9.07594 12.3147 12.0182 12.3147ZM14.1779 16.5285C15.2735 16.2888 16.3194 15.8733 17.2718 15.2978C18.0022 14.8512 18.2194 13.917 17.7571 13.2114C17.2949 12.5058 16.3279 12.296 15.5974 12.7425C13.3965 14.0711 10.6035 14.0711 8.40255 12.7425C7.67214 12.296 6.70514 12.5058 6.24287 13.2114C5.7806 13.917 5.99778 14.8512 6.72819 15.2978C7.69277 15.8838 8.73014 16.2941 9.82212 16.5285L6.84952 19.4178C6.23802 20.0086 6.23802 20.9662 6.84952 21.5569C7.46103 22.1477 8.4523 22.1477 9.0638 21.5569L12 18.7145L14.9362 21.5511C15.5471 22.1418 16.5384 22.1424 17.1499 21.5517L17.1505 21.5511C17.762 20.9609 17.7626 20.0033 17.1511 19.4125L17.1505 19.4119L14.1597 16.5227" fill="white"/>
</svg>
