<svg width="150" height="21" viewBox="0 0 150 21" fill="none" xmlns="http://www.w3.org/2000/svg">
<mask id="mask0_70_1759" style="mask-type:alpha" maskUnits="userSpaceOnUse" x="63" y="0" width="87" height="18">
<path d="M63.0957 0.470703H150.001V17.8454H63.0957V0.470703Z" fill="white"/>
</mask>
<g mask="url(#mask0_70_1759)">
<path fill-rule="evenodd" clip-rule="evenodd" d="M142.374 4.70296C142.374 2.90383 144.033 1.84598 145.871 1.84598C147.09 1.84888 148.264 2.30099 149.17 3.11575L149.682 2.34395C148.637 1.4396 147.295 0.950528 145.913 0.969529C143.4 0.969529 141.418 2.45209 141.418 4.78058C141.418 9.3704 149.041 8.3361 149.041 12.5021C149.041 14.2812 147.615 15.4253 145.657 15.4253C144.186 15.3984 142.782 14.8063 141.736 13.7719L141.118 14.4713C142.326 15.6507 143.946 16.3116 145.634 16.3131C148.354 16.3131 150.002 14.6213 150.002 12.3974C149.997 7.53639 142.374 8.6143 142.374 4.67592V4.70209V4.70296ZM129.329 8.98058H135.271V8.10848H129.329V2.03087H136.572V1.18581H128.412V16.0009H136.962V15.155H129.331V8.98058H129.329ZM116.06 0.48639C111.718 0.434064 108.154 3.89017 108.102 8.20616C108.1 8.29337 108.101 8.38058 108.103 8.46779C108.083 10.4212 108.748 12.3198 109.983 13.8338C109.932 14.6004 109.717 15.3472 109.352 16.0234C108.988 16.6996 108.482 17.2895 107.869 17.753C111.51 18.2814 113.499 16.3785 113.597 16.2861C114.393 16.5417 115.224 16.6718 116.06 16.6716C120.583 16.6716 124.022 13.0733 124.022 8.47127C124.125 4.15616 120.689 0.576215 116.347 0.472436C116.25 0.470466 116.153 0.470176 116.056 0.471564L116.06 0.48639ZM99.4995 8.59511H95.4626V2.03087H98.8698C100.063 2.03087 100.533 2.13901 100.957 2.32825C101.499 2.57716 101.955 2.98177 102.266 3.49054C102.577 3.99932 102.73 4.58925 102.705 5.18523C102.694 7.19715 101.458 8.59511 99.4995 8.59511ZM100.665 9.31284V9.27011C102.414 8.88465 103.65 7.30093 103.65 5.18523C103.684 4.45658 103.507 3.73362 103.14 3.103C102.774 2.47238 102.233 1.96084 101.583 1.6297C100.984 1.33319 100.285 1.18494 98.8969 1.18494H94.5347V16.0001H95.4634V9.43581H99.7376L103.273 15.9992H104.361L101.016 9.82127C100.919 9.63984 100.803 9.46912 100.671 9.31197H100.666L100.665 9.31284ZM82.014 8.95354H87.9556V8.10761H82.0105V2.03174H89.2463V1.18581H81.0861V16.0009H89.6344V15.155H82.0114L82.0149 8.95441L82.014 8.95354ZM73.4666 8.15122H64.0088V1.19976H63.0957V15.9992H64.0088V8.99627H73.4666V15.9992H74.3832V1.18581H73.4666V8.15034V8.15122Z" fill="white"/>
</g>
<mask id="mask1_70_1759" style="mask-type:alpha" maskUnits="userSpaceOnUse" x="0" y="0" width="57" height="21">
<path d="M0 0.900391H56.0032V20.5295H0V0.900391Z" fill="white"/>
</mask>
<g mask="url(#mask1_70_1759)">
<path fill-rule="evenodd" clip-rule="evenodd" d="M17.8858 16.1821C17.3075 16.1821 16.753 16.4118 16.3441 16.8207C15.9352 17.2295 15.7055 17.7841 15.7055 18.3623C15.7074 18.6487 15.7656 18.932 15.8769 19.1959C15.9882 19.4599 16.1504 19.6993 16.3542 19.9005C16.558 20.1017 16.7995 20.2609 17.0648 20.3688C17.3302 20.4767 17.6142 20.5313 17.9006 20.5295C18.4785 20.5295 19.0328 20.3 19.4416 19.8915C19.8504 19.483 20.0804 18.9289 20.0808 18.351C20.0787 17.7737 19.8476 17.2209 19.4381 16.8141C19.0286 16.4072 18.4743 16.1796 17.8971 16.1812H17.8858V16.1821ZM50.0974 12.9309C49.7076 12.9283 49.3186 12.951 48.9314 12.9963V12.9545C49.3674 12.5446 49.7573 12.0893 50.0974 11.5992L55.9256 3.40155V1.15155H44.5605V4.27888H50.0808C50.4706 4.28062 50.8605 4.25969 51.2477 4.21696V4.25882C50.8102 4.66649 50.4192 5.12129 50.0817 5.61493L44.2919 13.7646V16.0582H56.0041V12.9309H50.0974ZM36.4003 16.0574H40.0718V1.15155H36.4003V16.0574ZM28.2724 10.5745C28.2724 12.1382 27.2459 12.9728 25.6718 12.9728C24.0985 12.9728 23.0686 12.1382 23.0686 10.5745V1.15068H19.3971V10.5754C19.3971 13.9347 21.8721 16.3085 25.6919 16.3085C29.5116 16.3085 31.9474 13.9347 31.9474 10.5754V1.15068H28.2715V10.5754L28.2724 10.5745ZM14.2055 12.9292C15.1554 11.6512 15.6776 10.106 15.6977 8.51376C15.6977 4.23615 12.4849 0.900391 7.84884 0.900391C3.21366 0.900391 0 4.23615 0 8.51376C0 11.4178 1.40233 13.919 3.7064 15.2402C5.50552 12.6109 3.85029 15.0239 5.6686 12.3318C5.06487 11.9004 4.578 11.3255 4.25189 10.6589C3.92578 9.99241 3.77068 9.25519 3.80058 8.51376C3.80058 6.07365 5.47936 4.23615 7.84971 4.23615C10.1581 4.23615 11.8988 6.07365 11.8988 8.51376C11.9022 9.17716 11.7698 9.83423 11.5099 10.4446L10.0186 9.00824L7.96221 11.3245L9.48576 12.6414C11.9765 14.9577 9.6689 12.8036 12.1709 15.0815L13.725 16.5178L15.8006 14.2007L14.2064 12.9309L14.2055 12.9292Z" fill="white"/>
</g>
</svg>
