<svg width="133" height="27" viewBox="0 0 133 27" fill="none" xmlns="http://www.w3.org/2000/svg">
<path d="M0 21.3956V8.76756H3.35041V10.1731C3.71789 9.64058 4.21112 9.20714 4.7863 8.91123C5.38132 8.61727 6.03727 8.46796 6.70083 8.47545C7.1752 8.45936 7.64712 8.5502 8.08167 8.74123V11.6744C7.8209 11.5615 7.54897 11.4765 7.27039 11.4205C6.97941 11.3643 6.68368 11.3362 6.38732 11.3368C5.76478 11.3288 5.15238 11.4947 4.61878 11.8157C4.07875 12.1548 3.64048 12.6339 3.35041 13.202V21.3956H0Z" fill="white"/>
<path d="M14.7303 21.6385C13.8288 21.6558 12.9389 21.4344 12.1504 20.9968C11.4075 20.5768 10.7985 19.955 10.3939 19.2034C9.96545 18.4021 9.74877 17.5044 9.76447 16.5958V8.76855H13.0599V16.1122C13.0432 16.4671 13.0982 16.8218 13.2215 17.155C13.3449 17.4882 13.534 17.7932 13.7778 18.0516C14.0312 18.2955 14.3317 18.485 14.661 18.6085C14.9902 18.732 15.3411 18.7869 15.6923 18.77C16.211 18.7817 16.7248 18.6684 17.1904 18.4396C17.6235 18.2212 18.0002 17.9058 18.2913 17.5177V8.76855H21.6106V21.3966H18.2913V20.379C17.3017 21.2266 16.0324 21.6756 14.7303 21.6385Z" fill="white"/>
<path d="M30.0407 21.5667C28.9016 21.5787 27.7813 21.2763 26.8028 20.6928C25.8456 20.1227 25.0499 19.3175 24.491 18.3534C23.9116 17.3576 23.6138 16.2228 23.6295 15.0707C23.6188 13.9356 23.9093 12.818 24.4714 11.832C25.0336 10.8459 25.8472 10.0268 26.8292 9.45823C27.8377 8.87926 28.9834 8.58235 30.146 8.59862C30.7547 8.59948 31.36 8.68818 31.9433 8.86201C32.519 9.03354 33.069 9.28244 33.5778 9.60189V4.42758L36.8971 3.87207V21.3967H33.6257V20.3552C32.6049 21.1582 31.3392 21.5859 30.0407 21.5667ZM30.5744 18.7293C31.148 18.7354 31.7171 18.6288 32.2497 18.4157C32.7527 18.2146 33.2072 17.9085 33.5826 17.5177V12.5973C33.202 12.2194 32.7462 11.9257 32.2449 11.7353C31.7107 11.5287 31.1422 11.4255 30.5697 11.4312C29.9123 11.4239 29.2647 11.589 28.691 11.91C28.143 12.2172 27.6869 12.6652 27.37 13.2078C27.0507 13.7786 26.8843 14.4222 26.8867 15.0762C26.8893 15.7302 27.0607 16.3725 27.3844 16.9407C27.7105 17.482 28.1693 17.9312 28.7173 18.2457C29.2815 18.5715 29.9232 18.7386 30.5744 18.7293Z" fill="white"/>
<path d="M43.5135 21.6136C42.6943 21.6285 41.8822 21.4591 41.1371 21.118C40.4812 20.8175 39.92 20.343 39.5146 19.746C39.1218 19.1498 38.919 18.4486 38.933 17.7347C38.9086 17.1886 39.0197 16.645 39.2565 16.1524C39.4932 15.6598 39.8483 15.2335 40.2899 14.9117C41.1946 14.2412 42.4542 13.906 44.0687 13.906C45.127 13.8982 46.1789 14.0698 47.1799 14.4136V13.4942C47.1799 12.7759 46.9548 12.218 46.5025 11.8444C46.0503 11.471 45.3873 11.2866 44.5162 11.2866C43.9339 11.2964 43.3555 11.3825 42.7956 11.5428C42.0653 11.749 41.3523 12.0123 40.6632 12.3305L39.4667 9.85715C40.3949 9.44724 41.3555 9.11491 42.3384 8.86344C43.225 8.63959 44.1356 8.5254 45.0499 8.52344C46.7778 8.52344 48.1108 8.93208 49.0489 9.74934C49.987 10.5667 50.4553 11.7176 50.4536 13.2021V21.3958H47.1703V20.4978C46.6665 20.8781 46.0993 21.166 45.4951 21.3479C44.8507 21.531 44.1833 21.6205 43.5135 21.6136ZM42.0776 17.6629C42.0734 17.893 42.1293 18.1203 42.2396 18.3223C42.35 18.5242 42.5111 18.6939 42.707 18.8146C43.2108 19.1195 43.7941 19.2671 44.3822 19.2384C44.8937 19.2432 45.4034 19.1779 45.8971 19.0444C46.356 18.915 46.7869 18.7015 47.1679 18.4147V16.571C46.7652 16.3947 46.3425 16.2684 45.9091 16.1951C45.4445 16.1211 44.9747 16.085 44.5043 16.0874C43.8837 16.0523 43.266 16.1953 42.7238 16.4992C42.5228 16.6183 42.3574 16.789 42.2446 16.9936C42.1318 17.1982 42.0758 17.4293 42.0824 17.6629H42.0776Z" fill="white"/>
<path d="M64.1994 26.5803C63.2459 26.5838 62.2949 26.4826 61.3634 26.2786C60.508 26.0935 59.6786 25.8041 58.8937 25.4166L60.0664 22.8498C60.7259 23.1708 61.4152 23.4267 62.1245 23.6136C62.7811 23.7833 63.4565 23.8694 64.1348 23.8699C65.1032 23.8699 65.8426 23.6552 66.3532 23.2258C66.8605 22.7972 67.1166 22.1626 67.1166 21.3222V20.3285C66.1114 21.0634 64.8962 21.4547 63.6513 21.4443C62.5272 21.4531 61.4211 21.1625 60.4462 20.6025C59.4714 20.0425 58.663 19.2332 58.104 18.2574C57.5335 17.2663 57.24 16.1398 57.2544 14.9962C57.24 13.8555 57.538 12.7327 58.1159 11.7494C58.6787 10.7888 59.4853 9.99409 60.4541 9.44599C61.4658 8.87384 62.6114 8.58129 63.7734 8.59836C64.3692 8.60225 64.9614 8.69093 65.5323 8.86175C66.0998 9.0256 66.6388 9.27507 67.131 9.60162V8.76837H70.4263V21.3725C70.4263 23.0374 69.8887 24.3216 68.8134 25.2251C67.738 26.1285 66.2 26.5803 64.1994 26.5803ZM64.1754 18.6548C64.7388 18.6614 65.298 18.5582 65.8219 18.3507C66.3068 18.1595 66.745 17.8663 67.107 17.4912V12.573C66.7372 12.2071 66.2955 11.9217 65.8099 11.7351C65.2919 11.5375 64.7417 11.4383 64.1874 11.4429C63.5338 11.4346 62.8897 11.5999 62.3207 11.9218C61.7805 12.229 61.33 12.6723 61.0141 13.2076C60.691 13.7536 60.5253 14.3785 60.5354 15.013C60.5272 15.6669 60.6923 16.3113 61.0141 16.8806C61.3254 17.4259 61.7775 17.8775 62.3231 18.1879C62.888 18.506 63.5273 18.668 64.1754 18.6572V18.6548Z" fill="white"/>
<path d="M77.0404 21.6151C76.2219 21.6298 75.4106 21.4605 74.6664 21.1194C74.0104 20.819 73.4492 20.3445 73.0438 19.7474C72.6511 19.1513 72.4484 18.45 72.4623 17.7361C72.4378 17.1901 72.549 16.6464 72.7857 16.1538C73.0225 15.6612 73.3775 15.2349 73.8192 14.9131C74.7238 14.2427 75.9834 13.9075 77.598 13.9075C78.6562 13.8996 79.7081 14.0713 80.7091 14.4151V13.4957C80.7091 12.7773 80.4817 12.2194 80.0294 11.8459C79.5771 11.4723 78.9166 11.288 78.0431 11.288C77.4609 11.298 76.8823 11.3841 76.3224 11.5442C75.5928 11.75 74.8806 12.0134 74.1925 12.332L72.996 9.85851C73.9227 9.44836 74.8816 9.1152 75.863 8.86247C76.7503 8.63875 77.6617 8.52457 78.5768 8.52246C80.3046 8.52246 81.6369 8.93111 82.5734 9.74839C83.5096 10.5657 83.9788 11.7166 83.9805 13.2011V21.3971H80.6995V20.4993C80.1959 20.8798 79.6287 21.1676 79.0243 21.3493C78.3792 21.533 77.7111 21.6226 77.0404 21.6151ZM75.6045 17.6643C75.6003 17.8945 75.6561 18.1217 75.7665 18.3237C75.8768 18.5256 76.038 18.6953 76.2339 18.816C76.7374 19.1216 77.3209 19.2692 77.9091 19.2398C78.4198 19.2447 78.9286 19.1794 79.4216 19.0459C79.8815 18.9172 80.3133 18.7036 80.6947 18.4161V16.5724C80.2913 16.3957 79.8678 16.2695 79.4335 16.1965C78.9689 16.1224 78.4992 16.0864 78.0288 16.0887C77.4082 16.0544 76.7907 16.1973 76.2482 16.5006C76.0502 16.6216 75.888 16.7932 75.7783 16.9978C75.6685 17.2022 75.6151 17.4323 75.6236 17.6643H75.6045Z" fill="white"/>
<path d="M86.4883 21.3971V8.76904H89.8075V9.72682C90.5584 9.08851 91.477 8.6811 92.4534 8.55364C93.4307 8.42619 94.4228 8.58415 95.3117 9.00846C95.9519 9.33328 96.5012 9.81207 96.911 10.4021C97.4116 9.80109 98.0419 9.32064 98.7531 8.99648C99.4933 8.66924 100.295 8.50588 101.103 8.51763C101.974 8.50082 102.832 8.72363 103.585 9.1617C104.302 9.58507 104.889 10.1971 105.282 10.9312C105.706 11.7328 105.919 12.6295 105.9 13.5363V21.3899H102.575V14.0535C102.575 13.2274 102.362 12.5785 101.934 12.1021C101.715 11.8627 101.447 11.6743 101.147 11.5502C100.848 11.4261 100.525 11.3692 100.201 11.3837C99.7295 11.3791 99.2628 11.4832 98.8374 11.6878C98.407 11.9073 98.0435 12.238 97.7841 12.6455C97.7982 12.7917 97.8155 12.9377 97.832 13.0814C97.8486 13.2348 97.8568 13.3891 97.856 13.5435V21.3971H94.5294V14.0535C94.5294 13.2274 94.3162 12.5785 93.8883 12.1021C93.6694 11.8627 93.4009 11.6743 93.1019 11.5502C92.802 11.4261 92.479 11.3692 92.1552 11.3837C91.6909 11.3757 91.2308 11.4748 90.8103 11.6735C90.4072 11.8752 90.0611 12.1758 89.8058 12.5474V21.3971H86.4883Z" fill="white"/>
<path d="M114.617 21.6389C113.444 21.6528 112.286 21.3622 111.259 20.7952C110.231 20.2282 109.368 19.4044 108.754 18.404C108.149 17.4047 107.839 16.2555 107.856 15.0878C107.842 13.9442 108.13 12.8171 108.691 11.8209C109.253 10.8247 110.068 9.99483 111.054 9.4155C112.044 8.83249 113.175 8.53113 114.325 8.5439C115.466 8.52375 116.589 8.83031 117.561 9.42748C118.505 10.0177 119.274 10.8502 119.789 11.8386C120.343 12.9164 120.622 14.1151 120.6 15.3273V16.2012H111.247C111.388 16.6985 111.634 17.1603 111.965 17.5565C112.3 17.9576 112.723 18.277 113.2 18.4903C113.696 18.7107 114.233 18.8225 114.775 18.8183C115.302 18.8217 115.827 18.735 116.326 18.562C116.787 18.4089 117.209 18.1573 117.563 17.8246L119.743 19.812C118.315 21.0326 116.485 21.6801 114.608 21.6293L114.617 21.6389ZM111.199 13.8331H117.355C117.235 13.3533 117.015 12.904 116.711 12.5138C116.423 12.1421 116.054 11.8395 115.635 11.6279C115.212 11.4191 114.748 11.3117 114.277 11.3142C113.792 11.3072 113.312 11.4103 112.872 11.6159C112.455 11.8161 112.092 12.1152 111.817 12.4874C111.525 12.8909 111.315 13.3482 111.199 13.8331Z" fill="white"/>
<path d="M127.458 21.6395C126.38 21.6475 125.307 21.4966 124.273 21.1918C123.344 20.9246 122.469 20.4931 121.691 19.918L123.34 17.6887C123.993 18.1346 124.697 18.5011 125.436 18.7806C126.076 19.0166 126.753 19.1391 127.434 19.1421C128.05 19.1701 128.663 19.0416 129.215 18.7687C129.657 18.5164 129.879 18.1892 129.88 17.7869C129.886 17.6357 129.855 17.4853 129.789 17.3488C129.724 17.2123 129.626 17.0939 129.504 17.004C129.147 16.7684 128.735 16.626 128.308 16.5897L125.881 16.2354C124.637 16.0406 123.688 15.6319 123.034 15.0094C122.706 14.6919 122.449 14.3087 122.28 13.8849C122.111 13.4612 122.033 13.0063 122.052 12.5504C122.033 11.7887 122.26 11.0411 122.696 10.417C123.16 9.79005 123.795 9.31035 124.525 9.03535C125.405 8.69805 126.343 8.5354 127.286 8.55651C128.208 8.55495 129.126 8.68475 130.012 8.94201C130.899 9.20585 131.737 9.61005 132.496 10.1392L130.895 12.2942C130.274 11.8909 129.602 11.5728 128.896 11.3484C128.281 11.1573 127.641 11.0589 126.996 11.0563C126.496 11.0356 125.999 11.1533 125.561 11.3963C125.395 11.4805 125.254 11.6088 125.156 11.7671C125.058 11.9254 125.005 12.1078 125.003 12.2942C125 12.4482 125.035 12.6006 125.105 12.738C125.174 12.8754 125.277 12.9935 125.403 13.0819C125.8 13.3267 126.247 13.4766 126.711 13.5201L129.134 13.8601C130.394 14.0373 131.352 14.4411 132.006 15.0717C132.331 15.378 132.587 15.7498 132.758 16.1624C132.929 16.5752 133.011 17.0194 132.999 17.4661C133.014 18.2457 132.761 19.0066 132.281 19.621C131.758 20.2725 131.079 20.7808 130.307 21.0984C129.405 21.4746 128.435 21.6589 127.458 21.6395Z" fill="white"/>
<path d="M48.6422 3.06831L46.2968 0.72168L42.9648 4.05539L45.3103 6.40202L48.6422 3.06831Z" fill="white"/>
</svg>
