<svg width="104" height="29" viewBox="0 0 104 29" fill="none" xmlns="http://www.w3.org/2000/svg">
<path d="M25.9344 5.83887C26.6077 6.69418 27.1777 7.62341 27.6328 8.6079L14.722 17.9594L9.32617 14.636V10.6376L14.722 13.9611L25.9344 5.83887Z" fill="white"/>
<path d="M3.81937 14.3534C3.81937 14.174 3.82382 13.9958 3.83273 13.8186L0.562731 13.6611C0.551601 13.8908 0.544926 14.1227 0.544926 14.3567C0.543535 16.185 0.909542 17.9956 1.62196 19.6846C2.33437 21.3737 3.37917 22.9079 4.69642 24.1992L7.01591 21.9212C6.00194 20.9289 5.19755 19.7495 4.64898 18.4508C4.10041 17.152 3.81847 15.7595 3.81937 14.3534Z" fill="white"/>
<path d="M14.7179 3.64395C14.9004 3.64395 15.0818 3.65052 15.2621 3.65926L15.4257 0.445125C15.1913 0.434189 14.9553 0.428721 14.7179 0.428721C12.8562 0.426491 11.0126 0.785604 9.2926 1.48544C7.57263 2.18528 6.0103 3.21206 4.69531 4.50682L7.0148 6.78591C8.02472 5.78928 9.22519 4.99862 10.5472 4.45941C11.8691 3.9202 13.2865 3.64306 14.7179 3.64395Z" fill="white"/>
<path d="M14.7187 25.0637C14.5362 25.0637 14.3548 25.0637 14.1734 25.0495L14.0098 28.2625C14.245 28.2742 14.4813 28.28 14.7187 28.28C16.5796 28.2819 18.4224 27.9226 20.1414 27.2225C21.8605 26.5225 23.4218 25.4956 24.7358 24.2008L22.4207 21.9229C21.4106 22.919 20.2103 23.7092 18.8886 24.2482C17.5669 24.7872 16.1498 25.0644 14.7187 25.0637Z" fill="white"/>
<path d="M20.8631 5.51307L23.6189 3.51722C21.1001 1.51312 17.9559 0.422171 14.7148 0.427756V3.64408C16.9096 3.6414 19.0534 4.29311 20.8631 5.51307Z" fill="white"/>
<path d="M28.8932 14.354C28.895 13.5173 28.8205 12.6821 28.6706 11.8584L25.6199 14.0675C25.6199 14.1627 25.6199 14.2578 25.6199 14.354C25.6207 15.8504 25.3014 17.3303 24.6829 18.6976C24.0643 20.065 23.1603 21.2894 22.0293 22.2915L24.2297 24.6811C25.7001 23.3768 26.875 21.7835 27.6784 20.0045C28.4818 18.2255 28.8957 16.3004 28.8932 14.354Z" fill="white"/>
<path d="M14.7191 25.0641C13.196 25.0647 11.6899 24.7509 10.2981 24.1431C8.90635 23.5354 7.66 22.6472 6.63977 21.5361L4.20898 23.6971C5.53619 25.1421 7.15766 26.2967 8.96826 27.0863C10.7789 27.8759 12.7381 28.2827 14.7191 28.2804V25.0641Z" fill="white"/>
<path d="M7.40992 6.4169L5.21063 4.02734C3.73988 5.33134 2.5645 6.92454 1.76072 8.7036C0.956949 10.4826 0.542731 12.4078 0.544931 14.3543H3.81938C3.8187 12.858 4.13798 11.3782 4.75651 10.0108C5.37504 8.64349 6.27903 7.41906 7.40992 6.4169Z" fill="white"/>
<path d="M82.3395 8.39273L86.395 5.49023H72.8223V22.9317H86.395V20.0292H76.6951V15.5616H84.9695V12.6591H76.6951V8.39273H82.3395Z" fill="white"/>
<path d="M63.6882 12.285H58.976V8.39179H66.4964L70.5494 5.48047H55.1055V22.922H63.1897C67.7222 22.922 70.3233 20.9264 70.3233 17.446C70.3233 14.1165 67.9673 12.285 63.6882 12.285ZM63.0154 20.0186H58.976V15.1857H63.0154C65.4668 15.1857 66.6162 15.9956 66.6162 17.6022C66.6162 19.2087 65.3932 20.0186 63.0154 20.0186Z" fill="white"/>
<path d="M96.3705 5.4873H88.9824V22.9287H92.8547V17.9879H96.3705C101.084 17.9879 104 15.5783 104 11.7283C104 7.87833 101.084 5.4873 96.3705 5.4873ZM96.2888 15.0832H92.8547V8.39202H96.2888C98.7682 8.39202 100.137 9.58092 100.137 11.7389C100.137 13.8969 98.7682 15.0832 96.2888 15.0832Z" fill="white"/>
<path d="M49.295 18.8129C48.2947 19.3392 47.1739 19.6116 46.0364 19.6052C42.6319 19.6052 40.1621 17.244 40.1621 13.9926C40.1621 10.7412 42.6319 8.3749 46.0364 8.3749C47.2642 8.35464 48.4665 8.71631 49.4676 9.40712L52.1764 7.46914L51.9932 7.3427C50.4131 5.99311 48.3018 5.27832 45.8851 5.27832C43.2639 5.27832 40.8871 6.13503 39.1901 7.69365C38.332 8.49615 37.6535 9.46187 37.1965 10.5305C36.7396 11.5992 36.5142 12.7478 36.5345 13.9048C36.5163 15.0736 36.7407 16.234 37.1942 17.3167C37.6478 18.3994 38.3211 19.3822 39.1742 20.2064C40.8791 21.827 43.2506 22.7198 45.8532 22.7198C48.5726 22.7198 50.9495 21.7985 52.5589 20.1213L50.1342 18.3666L49.295 18.8129Z" fill="white"/>
</svg>
