<svg width="24" height="24" viewBox="0 0 24 24" fill="none" xmlns="http://www.w3.org/2000/svg">
<path d="M4.16866 11.4575C8.73205 9.34063 11.775 7.94509 13.2976 7.27083C17.6448 5.34569 18.5481 5.01127 19.1369 5.00011C19.2664 4.9978 19.5559 5.03196 19.7435 5.194C19.9018 5.33081 19.9454 5.51563 19.9663 5.64535C19.9871 5.77506 20.0131 6.07056 19.9924 6.30145C19.7569 8.93683 18.7375 15.3322 18.2189 18.2839C17.9995 19.5328 17.5674 19.9516 17.1492 19.9926C16.2401 20.0816 15.5498 19.3529 14.6694 18.7385C13.2916 17.7769 12.5133 17.1783 11.176 16.24C9.63045 15.1557 10.6323 14.5597 11.5131 13.5857C11.7436 13.3308 15.7489 9.45196 15.8264 9.10009C15.8361 9.05608 15.8451 8.89204 15.7536 8.80543C15.6621 8.71881 15.527 8.74843 15.4295 8.77199C15.2913 8.80538 13.0904 10.3542 8.82663 13.4186C8.2019 13.8753 7.63604 14.0979 7.12904 14.0862C6.57012 14.0734 5.49498 13.7497 4.69573 13.4731C3.71541 13.1338 2.93627 12.9545 3.00412 12.3783C3.03946 12.0781 3.42764 11.7712 4.16866 11.4575Z" fill="white"/>
</svg>
