<svg width="39" height="40" viewBox="0 0 39 40" fill="none" xmlns="http://www.w3.org/2000/svg">
<path fill-rule="evenodd" clip-rule="evenodd" d="M37.5192 39.501H1.48055C0.662828 39.501 0 38.8381 0 38.0203V1.97922C0 1.16145 0.662828 0.498947 1.48055 0.498947H37.5192C38.3369 0.498947 38.9997 1.16145 38.9997 1.97922V38.0203C38.9997 38.8381 38.3368 39.501 37.5192 39.501ZM30.5812 12.765H27.513C27.3816 12.765 27.2752 12.8695 27.2752 12.9983V26.9981C27.2752 27.1258 27.3816 27.2303 27.513 27.2303H30.5812C30.7114 27.2303 30.8193 27.1258 30.8193 26.9981V12.9983C30.8193 12.8695 30.7114 12.765 30.5812 12.765ZM20.1051 12.765H8.4179C8.28652 12.765 8.1809 12.8695 8.1809 12.9983V26.9981C8.1809 27.1258 8.28652 27.2303 8.4179 27.2303H11.4868C11.6175 27.2303 11.7257 27.1258 11.7257 26.9981V16.0103C11.7257 15.8835 11.8313 15.7782 11.9627 15.7782H18.5734C20.4324 15.7782 20.9601 17.2021 20.9601 18.1206V26.9981C20.9601 27.1258 21.0668 27.2303 21.1982 27.2303H24.2653C24.3959 27.2303 24.503 27.1258 24.503 26.9981V17.0666C24.503 16.2473 24.4045 15.0694 23.3475 14.0325C22.2417 12.9501 21.2329 12.765 20.1051 12.765ZM14.7332 18.3413H17.9552C18.0855 18.3413 18.1922 18.4458 18.1922 18.5739V26.9994C18.1922 27.1266 18.0855 27.2311 17.9552 27.2311H14.7332C14.6019 27.2311 14.494 27.1266 14.494 26.9994V18.5739C14.494 18.4459 14.6019 18.3413 14.7332 18.3413Z" fill="white"/>
</svg>
