<svg width="24" height="24" viewBox="0 0 24 24" fill="none" xmlns="http://www.w3.org/2000/svg">
<path d="M20.8207 8.39961C20.8207 8.39961 20.6449 7.15859 20.1035 6.61367C19.418 5.89648 18.6516 5.89297 18.3 5.85078C15.7828 5.66797 12.0035 5.66797 12.0035 5.66797H11.9965C11.9965 5.66797 8.21719 5.66797 5.7 5.85078C5.34844 5.89297 4.58203 5.89648 3.89648 6.61367C3.35508 7.15859 3.18281 8.39961 3.18281 8.39961C3.18281 8.39961 3 9.85859 3 11.3141V12.6781C3 14.1336 3.1793 15.5926 3.1793 15.5926C3.1793 15.5926 3.35508 16.8336 3.89297 17.3785C4.57852 18.0957 5.47852 18.0711 5.8793 18.1484C7.3207 18.2855 12 18.3277 12 18.3277C12 18.3277 15.7828 18.3207 18.3 18.1414C18.6516 18.0992 19.418 18.0957 20.1035 17.3785C20.6449 16.8336 20.8207 15.5926 20.8207 15.5926C20.8207 15.5926 21 14.1371 21 12.6781V11.3141C21 9.85859 20.8207 8.39961 20.8207 8.39961ZM10.1402 14.334V9.275L15.0023 11.8133L10.1402 14.334Z" fill="white"/>
</svg>
