<svg width="25" height="24" fill="none" xmlns="http://www.w3.org/2000/svg"><path d="M16.872 14.218a.803.803 0 01-.79-.813c0-.448.354-.813.79-.813.437 0 .792.365.792.813a.803.803 0 01-.792.813zm-8.744 0a.803.803 0 01-.792-.813c0-.448.355-.813.792-.813.436 0 .79.365.79.813a.803.803 0 01-.79.813zm9.028-4.897l1.581-2.814a.347.347 0 00-.12-.462.322.322 0 00-.25-.033.33.33 0 00-.2.157l-1.6 2.85a9.54 9.54 0 00-4.067-.894 9.54 9.54 0 00-4.067.893l-1.6-2.85a.33.33 0 00-.2-.156.322.322 0 00-.25.033.346.346 0 00-.12.462l1.58 2.814C5.13 10.838 3.273 13.663 3 17h19c-.272-3.337-2.129-6.162-4.844-7.68" fill="#fff"/></svg>