<svg width="48" height="48" fill="none" xmlns="http://www.w3.org/2000/svg"><rect width="48" height="48" rx="24" fill="#800BF5"/><path d="M29.063 25.712c-.505 0-.916-.43-.916-.96s.41-.961.916-.961c.505 0 .916.43.916.96s-.411.961-.916.961zm-10.126 0c-.505 0-.916-.43-.916-.96s.411-.961.916-.961c.505 0 .916.43.916.96s-.41.961-.916.961zm10.454-5.787l1.831-3.326a.42.42 0 00.038-.303.398.398 0 00-.177-.243.366.366 0 00-.29-.04.384.384 0 00-.23.187l-1.854 3.367A10.86 10.86 0 0024 18.511c-1.699 0-3.291.378-4.709 1.056L17.437 16.2a.384.384 0 00-.23-.186.366.366 0 00-.29.04.398.398 0 00-.177.242.417.417 0 00.038.303l1.83 3.326C15.466 21.718 13.316 25.056 13 29h22c-.315-3.944-2.465-7.282-5.609-9.075" fill="#fff"/></svg>