<svg width="184" height="195" fill="none" xmlns="http://www.w3.org/2000/svg"><g filter="url(#filter0_d_70_1374)"><path d="M70.138 156.594c-1.477 1.161-3.298 2.124-5.204 2.458-5.251.921-9.304-4.721-10.843-9.826-11.053-36.66-20.433-100.837 16.04-117.354 39.33-17.81 60.492 50.518 66.156 86.909 1.895 10.84.897 29.145-18.256 15.652-.689-.388-2.222-2.087-2.908-2.167-.299-.035-.085 2.019-.074 2.22.328 9.624-2.901 23.999-18.437 4.508-.485-.548-1.014-1.629-1.567-2.037-.22-.162-.094.537-.14.806l-.2 1.147c-.144.83-.126 1.581-.197 2.406a61.784 61.784 0 01-.684 5.359c-.304 1.753-.67 3.418-1.776 4.845-1.137 1.469-2.643 1.876-4.294 2.526-3.305 1.3-6.14-.323-8.359-2.621-1.626-1.684-3.152-3.899-4.413-5.906-.63-1.005-1.626-2.299-2.637-2.977-.247-.165-.239 3.303-.227 3.699.084 2.816.5 8.404-1.98 10.353z" fill="url(#paint0_linear_70_1374)"/></g><circle cx="3.852" cy="3.852" r="3.852" transform="scale(-1 1) rotate(15 -313.54 -218.526)" fill="#14063D"/><circle cx="3.852" cy="3.852" r="3.852" transform="scale(-1 1) rotate(15 -304.452 -315.198)" fill="#14063D"/><ellipse cx="4.5" cy="5" rx="4.5" ry="5" transform="matrix(-1 0 0 1 86.223 90.602)" fill="#14063D"/><defs><linearGradient id="paint0_linear_70_1374" x1="90.473" y1="90.054" x2="42.577" y2="73.031" gradientUnits="userSpaceOnUse"><stop stop-color="#0094D3"/><stop offset="1" stop-color="#0FF"/></linearGradient><filter id="filter0_d_70_1374" x="20.199" y="4.964" width="140.758" height="178.188" filterUnits="userSpaceOnUse" color-interpolation-filters="sRGB"><feFlood flood-opacity="0" result="BackgroundImageFix"/><feColorMatrix in="SourceAlpha" values="0 0 0 0 0 0 0 0 0 0 0 0 0 0 0 0 0 0 127 0" result="hardAlpha"/><feOffset/><feGaussianBlur stdDeviation="12"/><feComposite in2="hardAlpha" operator="out"/><feColorMatrix values="0 0 0 0 0 0 0 0 0 0.569536 0 0 0 0 0.74939 0 0 0 1 0"/><feBlend in2="BackgroundImageFix" result="effect1_dropShadow_70_1374"/><feBlend in="SourceGraphic" in2="effect1_dropShadow_70_1374" result="shape"/></filter></defs></svg>