<svg width="25" height="24" fill="none" xmlns="http://www.w3.org/2000/svg"><path d="M13 15.998a4 4 0 100-8 4 4 0 000 8z" fill="#fff"/><path d="M13 8h6.927a7.998 7.998 0 00-13.855.001L9.536 14h.003a3.995 3.995 0 013.46-6z" fill="url(#paint0_linear_209_2019)"/><path d="M13 15.167a3.167 3.167 0 100-6.334 3.167 3.167 0 000 6.334z" fill="#1A73E8"/><path d="M16.463 14.001L12.999 20a7.998 7.998 0 006.927-11.999h-6.927l-.001.003a3.995 3.995 0 013.465 5.997z" fill="url(#paint1_linear_209_2019)"/><path d="M9.536 14.001L6.072 8.002A7.998 7.998 0 0013 20l3.464-5.999-.002-.002A3.995 3.995 0 019.536 14z" fill="url(#paint2_linear_209_2019)"/><defs><linearGradient id="paint0_linear_209_2019" x1="6.072" y1="9" x2="19.927" y2="9" gradientUnits="userSpaceOnUse"><stop stop-color="#D93025"/><stop offset="1" stop-color="#EA4335"/></linearGradient><linearGradient id="paint1_linear_209_2019" x1="11.906" y1="19.893" x2="18.834" y2="7.895" gradientUnits="userSpaceOnUse"><stop stop-color="#FCC934"/><stop offset="1" stop-color="#FBBC04"/></linearGradient><linearGradient id="paint2_linear_209_2019" x1="13.865" y1="19.5" x2="6.938" y2="7.502" gradientUnits="userSpaceOnUse"><stop stop-color="#1E8E3E"/><stop offset="1" stop-color="#34A853"/></linearGradient></defs></svg>