<svg width="86" height="22" fill="none" xmlns="http://www.w3.org/2000/svg"><path d="M45.707 5.516c-.67 0-1.236-.236-1.683-.7a2.39 2.39 0 01-.68-1.709c0-.677.23-1.251.68-1.706.445-.464 1.01-.7 1.68-.7.664 0 1.23.236 1.684.7.45.47.68 1.044.68 1.706-.008.68-.237 1.254-.68 1.707-.446.468-1.01.702-1.681.702zm-19.951 0a2.331 2.331 0 01-1.69-.691c-.462-.457-.697-1.034-.697-1.716 0-.681.235-1.259.697-1.715a2.301 2.301 0 011.69-.691c.325 0 .64.065.944.197.297.128.539.302.718.516l.044.054-.5.494-.052-.062c-.282-.337-.661-.503-1.162-.503a1.6 1.6 0 00-1.158.476c-.323.317-.488.733-.488 1.236s.165.92.488 1.237c.322.315.711.475 1.158.475.477 0 .878-.16 1.19-.475.184-.186.3-.446.34-.774h-1.605v-.695h2.294l.009.063c.017.117.033.238.033.35 0 .64-.192 1.158-.573 1.54-.432.453-.997.684-1.68.684zm26.526-.099h-.707l-2.167-3.485.019.628v2.855h-.708V.801h.807l.023.036 2.037 3.282-.018-.625V.8h.714v4.616zm-11.891 0h-.717V1.496H38.43V.8h3.2v.695h-1.24v3.921h.002zm-2.544 0h-.715V.801h.715v4.616zm-4.017 0h-.715V1.496H31.87V.8h3.202v.695H33.83v3.921zm-2.411-.007h-2.741V.8h2.741v.695h-2.024v1.266h1.826v.687h-1.826v1.266h2.024v.695zm13.13-1.072c.319.322.707.483 1.158.483.463 0 .842-.158 1.158-.483.314-.315.473-.73.473-1.229 0-.5-.16-.915-.471-1.229a1.58 1.58 0 00-1.158-.483 1.53 1.53 0 00-1.157.483c-.314.316-.473.73-.473 1.23 0 .499.157.915.47 1.228z" fill="#fff"/><path fill-rule="evenodd" clip-rule="evenodd" d="M43.277 11.861c-1.745 0-3.16 1.332-3.16 3.168 0 1.82 1.424 3.168 3.16 3.168 1.746 0 3.16-1.341 3.16-3.168 0-1.836-1.414-3.168-3.16-3.168zm0 5.08c-.955 0-1.776-.794-1.776-1.92 0-1.141.823-1.92 1.776-1.92.955 0 1.777.779 1.777 1.92.002 1.133-.822 1.92-1.777 1.92zm-6.895-5.08c-1.745 0-3.16 1.332-3.16 3.168 0 1.82 1.424 3.168 3.16 3.168 1.746 0 3.16-1.341 3.16-3.168 0-1.836-1.416-3.168-3.16-3.168zm0 5.08c-.955 0-1.777-.794-1.777-1.92 0-1.141.824-1.92 1.777-1.92.955 0 1.777.779 1.777 1.92 0 1.133-.822 1.92-1.777 1.92zm-8.205-4.112v1.34h3.201c-.098.752-.345 1.307-.724 1.688-.47.472-1.193.984-2.47.984-1.967 0-3.506-1.597-3.506-3.574 0-1.977 1.54-3.574 3.506-3.574 1.063 0 1.836.421 2.41.96l.947-.951c-.798-.769-1.86-1.357-3.35-1.357-2.698 0-4.962 2.21-4.962 4.914 0 2.713 2.262 4.915 4.963 4.915 1.457 0 2.55-.479 3.415-1.381.881-.886 1.16-2.135 1.16-3.144 0-.313-.024-.596-.074-.835h-4.518c.002-.002.002.015.002.015zm33.56 1.043c-.263-.71-1.061-2.018-2.698-2.018-1.622 0-2.97 1.283-2.97 3.168 0 1.778 1.334 3.167 3.127 3.167 1.44 0 2.28-.886 2.625-1.405l-1.07-.72c-.354.528-.847.875-1.547.875-.708 0-1.203-.323-1.532-.96l4.214-1.754-.148-.353zm-4.296 1.059c-.033-1.224.946-1.846 1.646-1.846.552 0 1.012.273 1.17.67L57.44 14.93zM54.02 18h1.383V8.694H54.02V18zm-2.272-5.435h-.05c-.313-.373-.905-.711-1.663-.711-1.572 0-3.02 1.39-3.02 3.177 0 1.778 1.441 3.152 3.02 3.152.748 0 1.35-.34 1.663-.72h.05v.455c0 1.209-.643 1.86-1.68 1.86-.847 0-1.374-.612-1.588-1.125l-1.203.505c.346.836 1.268 1.87 2.79 1.87 1.621 0 2.996-.96 2.996-3.301v-5.684h-1.308v.522h-.007zm-1.589 4.376c-.955 0-1.753-.802-1.753-1.91 0-1.118.798-1.928 1.753-1.928.946 0 1.68.82 1.68 1.928.008 1.108-.732 1.91-1.68 1.91zm18.058-8.247h-3.308V18h1.383v-3.524h1.927c1.53 0 3.036-1.116 3.036-2.888 0-1.77-1.5-2.894-3.038-2.894zm.04 4.482H66.29V9.982h1.967c1.037 0 1.622.86 1.622 1.597 0 .73-.593 1.597-1.622 1.597zm8.543-1.331c-1.004 0-2.04.447-2.47 1.422l1.227.512c.264-.512.748-.687 1.26-.687.717 0 1.44.431 1.457 1.2v.098a3.086 3.086 0 00-1.44-.356c-1.325 0-2.668.727-2.668 2.092 0 1.25 1.086 2.052 2.296 2.052.93 0 1.441-.422 1.76-.91h.05v.72h1.334v-3.564c0-1.66-1.226-2.58-2.806-2.58zm-.173 5.096c-.453 0-1.086-.223-1.086-.794 0-.72.79-.994 1.464-.994.61 0 .898.132 1.26.314a1.669 1.669 0 01-1.638 1.474zm7.845-4.898l-1.589 4.037h-.05l-1.646-4.037h-1.488l2.47 5.643-1.408 3.136h1.44l3.8-8.779h-1.53zM72.017 18h1.384V8.694h-1.384V18z" fill="#fff"/><path fill-rule="evenodd" clip-rule="evenodd" d="M.54 1.273C.324 1.505.2 1.86.2 2.323v16.464c0 .464.124.819.346 1.042l.057.05 9.176-9.224v-.206L.596 1.223l-.057.05z" fill="url(#paint0_linear_4008_1296)"/><path fill-rule="evenodd" clip-rule="evenodd" d="M12.834 13.739l-3.06-3.077v-.215l3.06-3.077.067.041 3.62 2.068c1.036.587 1.036 1.556 0 2.15l-3.62 2.069-.067.04z" fill="url(#paint1_linear_4008_1296)"/><path fill-rule="evenodd" clip-rule="evenodd" d="M12.9 13.698l-3.127-3.143-9.234 9.281c.338.364.905.405 1.539.05L12.9 13.699z" fill="url(#paint2_linear_4008_1296)"/><path fill-rule="evenodd" clip-rule="evenodd" d="M12.9 7.41L2.078 1.233C1.444.868.875.918.539 1.282l9.234 9.272L12.9 7.411z" fill="url(#paint3_linear_4008_1296)"/><path opacity=".12" fill-rule="evenodd" clip-rule="evenodd" d="M16.522 11.522l-3.696 2.11.067.066 3.62-2.068c.52-.297.774-.687.774-1.075-.031.356-.296.694-.765.967z" fill="#140F14"/><path opacity=".25" fill-rule="evenodd" clip-rule="evenodd" d="M2.078 1.34L16.52 9.587c.469.266.733.613.774.968 0-.389-.255-.778-.774-1.076L2.078 1.232C1.042.636.2 1.133.2 2.324v.107c0-1.192.84-1.68 1.877-1.091z" fill="#fff"/><defs><linearGradient id="paint0_linear_4008_1296" x1="8.957" y1="2.146" x2="-5.752" y2="6.045" gradientUnits="userSpaceOnUse"><stop stop-color="#00A0FF"/><stop offset=".007" stop-color="#00A1FF"/><stop offset=".26" stop-color="#00BEFF"/><stop offset=".512" stop-color="#00D2FF"/><stop offset=".76" stop-color="#00DFFF"/><stop offset="1" stop-color="#00E3FF"/></linearGradient><linearGradient id="paint1_linear_4008_1296" x1="17.872" y1="10.554" x2="-.05" y2="10.554" gradientUnits="userSpaceOnUse"><stop stop-color="#FFE000"/><stop offset=".409" stop-color="#FFBD00"/><stop offset=".775" stop-color="orange"/><stop offset="1" stop-color="#FF9C00"/></linearGradient><linearGradient id="paint2_linear_4008_1296" x1="11.2" y1="12.265" x2="-.691" y2="32.175" gradientUnits="userSpaceOnUse"><stop stop-color="#FF3A44"/><stop offset="1" stop-color="#C31162"/></linearGradient><linearGradient id="paint3_linear_4008_1296" x1="-1.786" y1="-4.204" x2="3.519" y2="4.689" gradientUnits="userSpaceOnUse"><stop stop-color="#32A071"/><stop offset=".069" stop-color="#2DA771"/><stop offset=".476" stop-color="#15CF74"/><stop offset=".801" stop-color="#06E775"/><stop offset="1" stop-color="#00F076"/></linearGradient></defs></svg>