<svg width="142" height="26" fill="none" xmlns="http://www.w3.org/2000/svg"><path d="M138.836 7.432v4.585h-6.395V7.432h-3.146V19.55h3.146v-4.892h6.395v4.892h3.163V7.432h-3.163z" fill="#fff"/><path fill-rule="evenodd" clip-rule="evenodd" d="M83.764 7.157c1.01 0 2.07.535 2.59 1.637l5.15 10.758h-3.349l-1.127-2.56h-6.529l-1.127 2.56h-3.349l5.15-10.758a2.846 2.846 0 012.59-1.637zm-.253 3.014l-1.935 4.39h4.375l-1.935-4.39a.252.252 0 00-.252-.179c-.084 0-.185.049-.253.178z" fill="#fff"/><path d="M48.849 5.245c-1.481 0-2.423.762-3.113 2.285l-4.106 9.105-4.105-9.105c-.69-1.523-1.633-2.285-3.113-2.285-1.38 0-2.81.956-2.81 3.014V19.55h3.146V8.583l4.14 9.04c.555 1.264 1.447 2.058 2.742 2.058 1.296 0 2.188-.794 2.743-2.058l4.14-9.04V19.55h3.146V8.275c0-2.074-1.43-3.03-2.81-3.03zm8.327 11.745a.261.261 0 01-.27-.259v-2.155h7.858v-2.478h-7.858V10.25c0-.146.118-.26.27-.26h7.773V7.43h-9.322c-1.093 0-1.867.876-1.867 1.799v8.49c0 .923.79 1.798 1.867 1.798h9.322v-2.56h-7.773v.033zm13.123 2.56v-9.283c0-.146.118-.259.27-.259h7.773v-2.56H69.02c-1.094 0-1.868.875-1.868 1.799V19.55H70.3z" fill="#fff"/><path fill-rule="evenodd" clip-rule="evenodd" d="M120.545 7.255c4.762 0 6.664 1.976 6.664 6.221 0 4.18-1.935 6.19-6.697 6.19h-1.044c-4.761 0-6.697-2.01-6.697-6.19 0-4.245 1.885-6.221 6.664-6.221h1.11zm-1.06 9.899h1.009c2.608 0 3.652-1.135 3.652-3.678v-.016c0-2.463-.976-3.678-3.652-3.678h-1.009c-2.76 0-3.652 1.215-3.652 3.678v.016c0 2.543 1.027 3.678 3.652 3.678zM97.744 5.536h6.243c4.644 0 6.512 2.268 6.529 6.222 0 .615-.051 1.182-.135 1.717-.488 2.803-2.204 4.52-6.562 4.52h-1.363v1.555h-3.147v-1.555h-1.38c-4.358 0-6.074-1.717-6.562-4.52a9.342 9.342 0 01-.135-1.717c0-3.954 1.851-6.222 6.512-6.222zm1.546 9.899h-1.447c-2.137 0-2.894-.762-3.365-1.96-.186-.47-.186-1.054-.186-1.718 0-2.576 1.245-3.678 3.063-3.678h1.935v7.356zm7.961-1.96c-.471 1.198-1.245 1.96-3.365 1.96h-1.447V8.079h1.935c1.817 0 3.062 1.086 3.062 3.678 0 .664 0 1.248-.185 1.718zm-93.067-.097V.854c6.226.73 11.055 5.85 11.072 12.038 0 6.708-5.654 12.152-12.62 12.152-.387 0-.774-.017-1.161-.05V14.497c0-.065.05-.13.134-.13h1.548c.556 0 1.027-.437 1.027-.988zm-.272 6.157c-.875 0-1.582-.68-1.582-1.523 0-.842.707-1.523 1.582-1.523.875 0 1.582.68 1.582 1.523 0 .843-.707 1.523-1.582 1.523zm2.121-1.523c0 .843.707 1.523 1.582 1.523.875 0 1.582-.68 1.582-1.523 0-.842-.707-1.523-1.582-1.523-.875 0-1.582.68-1.582 1.523zm3.701 0c0 .843.707 1.523 1.582 1.523.875 0 1.582-.68 1.582-1.523 0-.842-.707-1.523-1.582-1.523-.875 0-1.581.68-1.581 1.523z" fill="#fff"/><path fill-rule="evenodd" clip-rule="evenodd" d="M0 12.909C0 6.202 5.654.758 12.62.758h.034v12.021c0 .081-.068.13-.135.13h-1.582a1.025 1.025 0 00-.993.972v10.904C4.257 23.602 0 18.742 0 12.909zm8.615-3.661c0 .842.707 1.523 1.582 1.523.875 0 1.581-.68 1.581-1.523 0-.843-.706-1.523-1.581-1.523s-1.582.68-1.582 1.523z" fill="#fff"/></svg>