<svg width="80" height="23" fill="none" xmlns="http://www.w3.org/2000/svg"><path d="M7.773.857c-1.47 0-3.215 1.526-4.653 4.09-1.499 2.657-2.393 5.945-2.393 8.8 0 4.18 2.175 8.395 7.046 8.395 4.867 0 7.046-4.215 7.046-8.395 0-2.855-.894-6.143-2.385-8.8C10.983 2.383 9.24.857 7.774.857zm38.051 6.271h4.933v13.874h5.285V7.128h4.932v-5.13h-15.15v5.13zm26.424.002H80V1.997h-7.751c-7.123 0-10.925 3.82-10.925 9.502 0 5.683 3.802 9.503 10.925 9.503h7.75V15.87h-7.751c-3.295 0-5.463-1.27-5.463-4.37s2.168-4.372 5.463-4.372zM35.075 1.997l-2.817 11.344L29.44 1.997h-9.337v19.005h5.285V5.543l3.84 15.459h6.06l3.841-15.468v15.468h5.285V1.997h-9.34z" fill="#fff"/></svg>