<svg width="24" height="24" fill="none" xmlns="http://www.w3.org/2000/svg"><path d="M12.018 5.018c1.223 0 2.214.958 2.214 2.14 0 1.18-.99 2.138-2.214 2.138-1.223 0-2.214-.957-2.214-2.139 0-1.181.992-2.139 2.214-2.139zm0 7.297c2.948 0 5.339-2.315 5.339-5.158C17.357 4.315 14.96 2 12.018 2 9.076 2 6.68 4.315 6.68 7.157c0 2.843 2.396 5.158 5.338 5.158zm2.16 4.214a10.195 10.195 0 003.094-1.231c.73-.447.947-1.381.485-2.087-.462-.705-1.43-.915-2.16-.469a6.992 6.992 0 01-7.194 0c-.73-.446-1.698-.236-2.16.47a1.482 1.482 0 00.485 2.086 9.957 9.957 0 003.094 1.23l-2.972 2.89a1.476 1.476 0 000 2.139c.611.59 1.602.59 2.214 0L12 18.715l2.936 2.836c.611.59 1.602.591 2.214 0a1.476 1.476 0 00.001-2.138v-.001l-2.991-2.89" fill="#fff"/></svg>