<svg width="424" height="456" fill="none" xmlns="http://www.w3.org/2000/svg"><g filter="url(#filter0_d_70_1539)"><path d="M141.731 326.544c1.742 0 3.419-.133 4.897-.255.661-.056 1.268-.1 1.841-.133 6.32-.356 12.496-1.533 18.463-2.678 7.654-1.455 18.385-4.099 28.002-6.876a4.877 4.877 0 002.967-2.388 5.018 5.018 0 00.43-3.799c-.607-2.133-2.57-3.622-4.765-3.622-.463 0-.926.067-1.378.2-9.331 2.711-19.72 5.255-27.098 6.665-5.658 1.078-11.514 2.189-17.183 2.511-.64.033-1.345.089-2.084.155-1.214.1-2.736.223-4.158.223-.838 0-1.566-.045-2.162-.134 2.857-5.41 6.077-10.753 9.187-15.929 5.095-8.454 10.356-17.197 14.404-26.772a150.153 150.153 0 004.93-13.431l.132-.399c.937-2.889 2.68-8.276-.706-11.564-.816-.8-2.25-1.745-4.4-1.745-.96 0-1.964.189-3.011.578a66.557 66.557 0 01-17.911 3.899c.298-.355.618-.733.959-1.122a157.283 157.283 0 0017.426-23.872l1.731-2.911c3.949-6.609 8.029-13.43 11.084-20.639.872-2.055 2.493-5.888 1.434-10.054-.364-1.455-1.114-2.61-2.217-3.421-.97-.711-2.095-1.078-3.341-1.078-.364 0-.75.034-1.125.1l-2.636.445c-4.456.755-9.044 1.533-13.488 1.799 2.305-6.421 8.856-19.029 11.117-23.406 1.323-2.555 2.371-4.565 2.9-5.709.232-.489.563-1.256.971-2.222 6.518-15.108 9.915-18.751 11.04-19.607.551.389 1.202 1.011 1.797 1.578 1.258 1.188 4.291 3.554 9.981 7.987 7.18 5.587 25.543 19.884 31.951 26.605-4.158 1.544-8.647 2.688-12.992 3.799l-2.57.655c-1.676.434-2.922 1.345-3.705 2.7-.684 1.199-.905 2.555-.662 4.043.695 4.244 3.717 7.088 5.338 8.621 5.669 5.354 12.131 9.942 18.374 14.374l2.779 1.977a156.675 156.675 0 0025.455 14.764c.474.222.926.433 1.356.655a66.525 66.525 0 01-17.944 3.699c-4.158.267-5.735 2.666-6.308 4.077-1.776 4.377 1.974 8.609 3.992 10.876l.276.311a152.28 152.28 0 009.882 10.286c7.532 7.121 15.848 12.986 23.899 18.651 4.919 3.466 10.014 7.054 14.779 10.854-1.577.999-4.059 1.866-5.812 2.477-.706.244-1.379.477-1.975.711-5.315 2.01-11.117 3.366-16.73 4.676-10.908 2.544-30.197 5.71-42.34 6.366-2.735.144-4.831 2.51-4.687 5.265.143 2.655 2.316 4.732 4.941 4.732h.275c12.673-.688 32.734-3.965 44.05-6.609 5.933-1.389 12.054-2.811 17.977-5.055a67.67 67.67 0 011.643-.588c4.18-1.456 9.782-3.411 12.473-7.987 2.162-3.677.784-8.276-3.529-11.709-5.04-4.01-10.301-7.72-15.374-11.297-7.764-5.466-15.782-11.131-22.796-17.752a139.816 139.816 0 01-8.548-8.831 76.855 76.855 0 0020.591-5.854c.507-.223 1.555-.689 2.492-1.667 1.611-1.677 2.261-3.81 1.853-6.01-.65-3.476-3.816-6.354-10.268-9.32a146.143 146.143 0 01-23.866-13.83l-2.801-1.988c-5.89-4.188-11.966-8.509-17.095-13.297 4.776-1.244 9.419-2.577 13.874-4.477 1.004-.422 3.662-1.566 4.963-4.488 1.963-4.421-.915-8.554-13.367-19.207-7.433-6.365-16.852-13.685-23.723-19.04-4.312-3.355-8.315-6.476-9.264-7.365-1.456-1.377-3.264-3.088-5.746-4.01a8.176 8.176 0 00-2.878-.533c-8.283 0-14.735 13.352-20.139 25.861a94.572 94.572 0 01-.86 1.966c-.441.944-1.489 2.966-2.702 5.31-13.367 25.738-15.33 32.137-11.04 36.047 1.522 1.389 3.54 2.1 5.977 2.1h.375c4.831-.067 9.618-.734 14.481-1.533-2.779 6.487-6.617 12.908-10.334 19.129l-1.753 2.932a147.44 147.44 0 01-16.29 22.329c-4.731 5.354-6.485 9.275-5.691 12.719.508 2.188 1.963 3.877 4.103 4.754 1.257.511 2.393.511 2.945.511a76.15 76.15 0 0021.186-2.999 143.098 143.098 0 01-4.29 11.553c-3.772 8.92-8.845 17.341-13.753 25.494-3.232 5.355-6.551 10.876-9.551 16.586-2.57 4.887-1.996 9.653 1.456 12.141 2.349 1.689 5.492 2.511 9.617 2.511v-.045z" fill="#49CBF4"/><path d="M178.005 130.244c-7.566 0-13.797 12.853-19.124 25.194-.375.867-.662 1.544-.872 1.989-.452.966-1.5 2.999-2.724 5.354-12.892 24.817-14.999 31.304-11.271 34.692 1.831 1.667 4.08 1.811 5.239 1.811h.352c5.515-.078 10.963-.944 16.257-1.844-.188.533-.408 1.066-.618 1.577-2.812 6.643-6.727 13.197-10.521 19.551l-1.754 2.933a148.273 148.273 0 01-16.411 22.495c-4.477 5.066-6.143 8.676-5.437 11.731.419 1.822 1.643 3.232 3.441 3.977 1.059.433 2.007.433 2.526.433 7.797 0 15.484-1.2 22.885-3.566-.056.178-.111.367-.177.567l-.143.466a144.278 144.278 0 01-4.643 12.631c-3.794 8.986-8.901 17.451-13.831 25.638-3.209 5.332-6.529 10.842-9.517 16.53-2.294 4.365-1.853 8.576 1.124 10.72 2.57 1.855 5.857 2.31 8.978 2.31 1.698 0 3.353-.133 4.809-.255.661-.056 1.29-.111 1.863-.134 6.243-.355 12.386-1.521 18.33-2.655 7.632-1.455 18.319-4.076 27.903-6.854 2.052-.588 3.232-2.743 2.647-4.81a3.865 3.865 0 00-3.706-2.81c-.352 0-.716.044-1.069.155-9.364 2.711-19.786 5.277-27.197 6.688-5.691 1.088-11.581 2.21-17.327 2.533-.628.033-1.323.088-2.051.155-1.246.1-2.779.233-4.246.233-1.467 0-2.724-.111-3.684-.466.088-.311.232-.7.463-1.133 2.89-5.488 6.143-10.898 9.298-16.141 5.073-8.42 10.323-17.13 14.337-26.627a149.31 149.31 0 004.897-13.331l.132-.4c.927-2.854 2.471-7.62-.419-10.419-.639-.623-1.82-1.433-3.639-1.433-.761 0-1.633.144-2.625.511a67.596 67.596 0 01-20.624 4.11c.54-.789 1.323-1.811 2.47-3.111a156.39 156.39 0 0017.305-23.705l1.731-2.911c3.926-6.576 7.985-13.364 11.007-20.506.816-1.933 2.349-5.544 1.379-9.343-.298-1.199-.905-2.144-1.798-2.799-.783-.567-1.688-.855-2.691-.855-.309 0-.629.022-.949.077l-2.625.445c-5.029.855-10.212 1.733-15.219 1.888 1.676-5.821 9.054-20.029 11.69-25.105 1.324-2.544 2.36-4.555 2.879-5.666.231-.488.551-1.244.959-2.188 7.434-17.241 10.963-20.029 12.066-20.451.772.378 1.665 1.222 2.536 2.055 1.225 1.155 4.236 3.51 9.893 7.92 8.007 6.232 27.98 21.784 33.175 27.939-4.632 1.866-9.705 3.166-14.624 4.421l-2.57.655c-1.379.356-2.393 1.089-3.022 2.189-.551.966-.728 2.077-.529 3.299.639 3.877 3.474 6.554 5.007 7.987 5.614 5.299 12.043 9.864 18.253 14.286l2.779 1.977a153.673 153.673 0 0025.278 14.652c1.588.733 2.724 1.355 3.54 1.855a67.413 67.413 0 01-20.513 4.61c-3.563.234-4.886 2.222-5.36 3.389-1.522 3.743 1.808 7.476 3.782 9.708l.276.323a150.106 150.106 0 009.816 10.208c7.466 7.065 15.76 12.909 23.767 18.552 4.985 3.51 10.135 7.143 14.966 10.997.386.311.673.611.882.856-1.5 1.466-4.841 2.632-7.146 3.432-.695.245-1.357.467-1.941.7-5.382 2.033-11.228 3.399-16.875 4.71-10.951 2.555-30.329 5.732-42.527 6.399-2.128.111-3.76 1.944-3.65 4.088.11 2.066 1.797 3.677 3.849 3.677h.22c12.617-.689 32.591-3.955 43.862-6.588 5.889-1.377 11.977-2.799 17.834-5.01.54-.2 1.136-.411 1.764-.633 3.927-1.366 9.309-3.244 11.79-7.476 1.864-3.177.585-7.198-3.264-10.264-5.008-3.988-10.257-7.688-15.33-11.265-7.787-5.487-15.849-11.175-22.918-17.851a142.333 142.333 0 01-9.309-9.676l-.32-.366c-.132-.156-.264-.3-.386-.445a75.506 75.506 0 0022.367-6.02c.474-.212 1.356-.6 2.139-1.422 1.346-1.411 1.908-3.2 1.556-5.033-.585-3.088-3.552-5.72-9.64-8.52a147.235 147.235 0 01-24.054-13.941c-.926-.667-1.852-1.322-2.79-1.989-5.999-4.265-12.209-8.675-17.425-13.608a24.02 24.02 0 01-1.202-1.188c5.194-1.333 10.532-2.744 15.605-4.91.894-.378 3.265-1.4 4.39-3.922 1.5-3.365-.033-6.754-13.08-17.907-7.434-6.354-16.841-13.685-23.712-19.029-4.467-3.477-8.327-6.476-9.32-7.42-1.389-1.311-3.099-2.933-5.371-3.788-.849-.311-1.676-.467-2.492-.467m0-2.222c1.092 0 2.183.2 3.264.6 2.691 1.011 4.676 2.877 6.11 4.244.916.866 4.897 3.966 9.11 7.243l-1.268 1.821 1.345-1.755c6.882 5.355 16.301 12.686 23.756 19.063 12.948 11.086 15.893 15.496 13.665 20.506-1.478 3.322-4.533 4.632-5.536 5.055-3.894 1.666-7.93 2.899-12.055 4.01 4.742 4.21 10.191 8.076 15.473 11.842.949.666 1.875 1.333 2.802 1.999a144.395 144.395 0 0023.69 13.73c6.805 3.133 10.168 6.254 10.896 10.12.474 2.533-.309 5.077-2.139 6.988-1.092 1.133-2.272 1.655-2.835 1.91a77.623 77.623 0 01-18.837 5.632c2.283 2.5 4.665 4.921 7.103 7.232 6.948 6.576 14.944 12.208 22.664 17.652 5.095 3.588 10.367 7.309 15.429 11.341 4.765 3.8 6.253 8.954 3.794 13.142-2.901 4.921-8.724 6.954-12.97 8.442l-.099.034c-.574.2-1.114.389-1.61.577-5.989 2.255-12.143 3.7-18.099 5.088-11.37 2.655-31.52 5.943-44.258 6.643h-.342c-3.221 0-5.868-2.544-6.044-5.776-.176-3.366 2.393-6.255 5.735-6.432 12.088-.656 31.289-3.799 42.152-6.343 5.581-1.3 11.338-2.644 16.599-4.633a57.605 57.605 0 011.996-.711c1.158-.399 2.79-.977 4.158-1.599-4.357-3.388-8.945-6.621-13.389-9.754-8.073-5.698-16.422-11.586-24.021-18.751a152.028 152.028 0 01-9.959-10.364l-.276-.311c-2.173-2.444-6.22-7.01-4.18-12.031.541-1.322 2.327-4.443 7.257-4.765a65.877 65.877 0 0015.043-2.766 156.55 156.55 0 01-24.484-14.331l-2.768-1.977c-6.275-4.466-12.771-9.076-18.495-14.474-1.599-1.5-4.908-4.633-5.669-9.254-.287-1.744-.022-3.355.794-4.777.927-1.61 2.449-2.721 4.39-3.221l2.58-.655c3.761-.956 7.621-1.944 11.261-3.189-7.191-7.031-23.867-20.006-30.616-25.261-5.879-4.576-8.757-6.831-10.059-8.053-.308-.289-.661-.634-1.003-.933-1.346 1.433-4.544 5.776-10.069 18.595-.42.967-.75 1.744-.982 2.244-.54 1.167-1.599 3.2-2.923 5.755-2.084 4.01-7.797 15.007-10.444 21.65 3.849-.344 7.808-1.011 11.657-1.666l2.636-.444a7.746 7.746 0 011.313-.112c1.478 0 2.823.434 3.992 1.289 1.302.955 2.206 2.355 2.636 4.055 1.147 4.532-.64 8.742-1.489 10.764-3.088 7.276-7.18 14.141-11.15 20.773l-1.731 2.911a157.932 157.932 0 01-16.676 23.039c5.073-.6 10.058-1.8 14.878-3.566 1.158-.422 2.305-.644 3.386-.644 1.963 0 3.805.733 5.161 2.055 3.882 3.777 1.996 9.586.982 12.708l-.133.4a154.503 154.503 0 01-4.963 13.519c-4.069 9.642-9.363 18.418-14.48 26.905-2.813 4.677-5.724 9.498-8.349 14.363h.386c1.378 0 2.867-.122 4.069-.222a57.94 57.94 0 012.107-.155c5.603-.322 11.415-1.422 17.039-2.5 7.346-1.399 17.691-3.943 26.999-6.643a6.216 6.216 0 011.687-.244c2.691 0 5.085 1.822 5.824 4.421a6.087 6.087 0 01-.519 4.644 5.983 5.983 0 01-3.628 2.91c-9.639 2.799-20.404 5.443-28.102 6.91-6.01 1.144-12.22 2.332-18.605 2.688-.552.033-1.158.078-1.809.133-1.5.122-3.198.267-4.996.267-4.356 0-7.709-.889-10.257-2.722-3.926-2.832-4.632-8.154-1.787-13.563 3.022-5.732 6.353-11.276 9.574-16.63 4.896-8.131 9.959-16.53 13.697-25.372a139.706 139.706 0 003.607-9.498 77.247 77.247 0 01-19.488 2.488c-.618 0-1.908 0-3.353-.599-2.448-1-4.18-3.022-4.764-5.532-.883-3.833.948-8.065 5.944-13.72a146.44 146.44 0 0016.168-22.15l1.754-2.933c3.342-5.587 6.783-11.353 9.441-17.14-4.224.655-8.404 1.166-12.628 1.222h-.386c-2.724 0-4.974-.8-6.717-2.389-5.117-4.665-2.305-12.164 10.797-37.369 1.213-2.344 2.261-4.355 2.68-5.266.199-.433.486-1.088.838-1.91C162.697 141.108 169.104 128 178.06 128l-.044.044z" fill="#25C6F9"/></g><g filter="url(#filter1_d_70_1539)"><path d="M141.731 326.544c1.742 0 3.419-.133 4.897-.255.661-.056 1.268-.1 1.841-.133 6.32-.356 12.496-1.533 18.463-2.678 7.654-1.455 18.385-4.099 28.002-6.876a4.877 4.877 0 002.967-2.388 5.018 5.018 0 00.43-3.799c-.607-2.133-2.57-3.622-4.765-3.622-.463 0-.926.067-1.378.2-9.331 2.711-19.72 5.255-27.098 6.665-5.658 1.078-11.514 2.189-17.183 2.511-.64.033-1.345.089-2.084.155-1.214.1-2.736.223-4.158.223-.838 0-1.566-.045-2.162-.134 2.857-5.41 6.077-10.753 9.187-15.929 5.095-8.454 10.356-17.197 14.404-26.772a150.153 150.153 0 004.93-13.431l.132-.399c.937-2.889 2.68-8.276-.706-11.564-.816-.8-2.25-1.745-4.4-1.745-.96 0-1.964.189-3.011.578a66.557 66.557 0 01-17.911 3.899c.298-.355.618-.733.959-1.122a157.283 157.283 0 0017.426-23.872l1.731-2.911c3.949-6.609 8.029-13.43 11.084-20.639.872-2.055 2.493-5.888 1.434-10.054-.364-1.455-1.114-2.61-2.217-3.421-.97-.711-2.095-1.078-3.341-1.078-.364 0-.75.034-1.125.1l-2.636.445c-4.456.755-9.044 1.533-13.488 1.799 2.305-6.421 8.856-19.029 11.117-23.406 1.323-2.555 2.371-4.565 2.9-5.709.232-.489.563-1.256.971-2.222 6.518-15.108 9.915-18.751 11.04-19.607.551.389 1.202 1.011 1.797 1.578 1.258 1.188 4.291 3.554 9.981 7.987 7.18 5.587 25.543 19.884 31.951 26.605-4.158 1.544-8.647 2.688-12.992 3.799l-2.57.655c-1.676.434-2.922 1.345-3.705 2.7-.684 1.199-.905 2.555-.662 4.043.695 4.244 3.717 7.088 5.338 8.621 5.669 5.354 12.131 9.942 18.374 14.374l2.779 1.977a156.675 156.675 0 0025.455 14.764c.474.222.926.433 1.356.655a66.525 66.525 0 01-17.944 3.699c-4.158.267-5.735 2.666-6.308 4.077-1.776 4.377 1.974 8.609 3.992 10.876l.276.311a152.28 152.28 0 009.882 10.286c7.532 7.121 15.848 12.986 23.899 18.651 4.919 3.466 10.014 7.054 14.779 10.854-1.577.999-4.059 1.866-5.812 2.477-.706.244-1.379.477-1.975.711-5.315 2.01-11.117 3.366-16.73 4.676-10.908 2.544-30.197 5.71-42.34 6.366-2.735.144-4.831 2.51-4.687 5.265.143 2.655 2.316 4.732 4.941 4.732h.275c12.673-.688 32.734-3.965 44.05-6.609 5.933-1.389 12.054-2.811 17.977-5.055a67.67 67.67 0 011.643-.588c4.18-1.456 9.782-3.411 12.473-7.987 2.162-3.677.784-8.276-3.529-11.709-5.04-4.01-10.301-7.72-15.374-11.297-7.764-5.466-15.782-11.131-22.796-17.752a139.816 139.816 0 01-8.548-8.831 76.855 76.855 0 0020.591-5.854c.507-.223 1.555-.689 2.492-1.667 1.611-1.677 2.261-3.81 1.853-6.01-.65-3.476-3.816-6.354-10.268-9.32a146.143 146.143 0 01-23.866-13.83l-2.801-1.988c-5.89-4.188-11.966-8.509-17.095-13.297 4.776-1.244 9.419-2.577 13.874-4.477 1.004-.422 3.662-1.566 4.963-4.488 1.963-4.421-.915-8.554-13.367-19.207-7.433-6.365-16.852-13.685-23.723-19.04-4.312-3.355-8.315-6.476-9.264-7.365-1.456-1.377-3.264-3.088-5.746-4.01a8.176 8.176 0 00-2.878-.533c-8.283 0-14.735 13.352-20.139 25.861a94.572 94.572 0 01-.86 1.966c-.441.944-1.489 2.966-2.702 5.31-13.367 25.738-15.33 32.137-11.04 36.047 1.522 1.389 3.54 2.1 5.977 2.1h.375c4.831-.067 9.618-.734 14.481-1.533-2.779 6.487-6.617 12.908-10.334 19.129l-1.753 2.932a147.44 147.44 0 01-16.29 22.329c-4.731 5.354-6.485 9.275-5.691 12.719.508 2.188 1.963 3.877 4.103 4.754 1.257.511 2.393.511 2.945.511a76.15 76.15 0 0021.186-2.999 143.098 143.098 0 01-4.29 11.553c-3.772 8.92-8.845 17.341-13.753 25.494-3.232 5.355-6.551 10.876-9.551 16.586-2.57 4.887-1.996 9.653 1.456 12.141 2.349 1.689 5.492 2.511 9.617 2.511v-.045z" fill="#49CBF4"/><path d="M178.005 130.244c-7.566 0-13.797 12.853-19.124 25.194-.375.867-.662 1.544-.872 1.989-.452.966-1.5 2.999-2.724 5.354-12.892 24.817-14.999 31.304-11.271 34.692 1.831 1.667 4.08 1.811 5.239 1.811h.352c5.515-.078 10.963-.944 16.257-1.844-.188.533-.408 1.066-.618 1.577-2.812 6.643-6.727 13.197-10.521 19.551l-1.754 2.933a148.273 148.273 0 01-16.411 22.495c-4.477 5.066-6.143 8.676-5.437 11.731.419 1.822 1.643 3.232 3.441 3.977 1.059.433 2.007.433 2.526.433 7.797 0 15.484-1.2 22.885-3.566-.056.178-.111.367-.177.567l-.143.466a144.278 144.278 0 01-4.643 12.631c-3.794 8.986-8.901 17.451-13.831 25.638-3.209 5.332-6.529 10.842-9.517 16.53-2.294 4.365-1.853 8.576 1.124 10.72 2.57 1.855 5.857 2.31 8.978 2.31 1.698 0 3.353-.133 4.809-.255.661-.056 1.29-.111 1.863-.134 6.243-.355 12.386-1.521 18.33-2.655 7.632-1.455 18.319-4.076 27.903-6.854 2.052-.588 3.232-2.743 2.647-4.81a3.865 3.865 0 00-3.706-2.81c-.352 0-.716.044-1.069.155-9.364 2.711-19.786 5.277-27.197 6.688-5.691 1.088-11.581 2.21-17.327 2.533-.628.033-1.323.088-2.051.155-1.246.1-2.779.233-4.246.233-1.467 0-2.724-.111-3.684-.466.088-.311.232-.7.463-1.133 2.89-5.488 6.143-10.898 9.298-16.141 5.073-8.42 10.323-17.13 14.337-26.627a149.31 149.31 0 004.897-13.331l.132-.4c.927-2.854 2.471-7.62-.419-10.419-.639-.623-1.82-1.433-3.639-1.433-.761 0-1.633.144-2.625.511a67.596 67.596 0 01-20.624 4.11c.54-.789 1.323-1.811 2.47-3.111a156.39 156.39 0 0017.305-23.705l1.731-2.911c3.926-6.576 7.985-13.364 11.007-20.506.816-1.933 2.349-5.544 1.379-9.343-.298-1.199-.905-2.144-1.798-2.799-.783-.567-1.688-.855-2.691-.855-.309 0-.629.022-.949.077l-2.625.445c-5.029.855-10.212 1.733-15.219 1.888 1.676-5.821 9.054-20.029 11.69-25.105 1.324-2.544 2.36-4.555 2.879-5.666.231-.488.551-1.244.959-2.188 7.434-17.241 10.963-20.029 12.066-20.451.772.378 1.665 1.222 2.536 2.055 1.225 1.155 4.236 3.51 9.893 7.92 8.007 6.232 27.98 21.784 33.175 27.939-4.632 1.866-9.705 3.166-14.624 4.421l-2.57.655c-1.379.356-2.393 1.089-3.022 2.189-.551.966-.728 2.077-.529 3.299.639 3.877 3.474 6.554 5.007 7.987 5.614 5.299 12.043 9.864 18.253 14.286l2.779 1.977a153.673 153.673 0 0025.278 14.652c1.588.733 2.724 1.355 3.54 1.855a67.413 67.413 0 01-20.513 4.61c-3.563.234-4.886 2.222-5.36 3.389-1.522 3.743 1.808 7.476 3.782 9.708l.276.323a150.106 150.106 0 009.816 10.208c7.466 7.065 15.76 12.909 23.767 18.552 4.985 3.51 10.135 7.143 14.966 10.997.386.311.673.611.882.856-1.5 1.466-4.841 2.632-7.146 3.432-.695.245-1.357.467-1.941.7-5.382 2.033-11.228 3.399-16.875 4.71-10.951 2.555-30.329 5.732-42.527 6.399-2.128.111-3.76 1.944-3.65 4.088.11 2.066 1.797 3.677 3.849 3.677h.22c12.617-.689 32.591-3.955 43.862-6.588 5.889-1.377 11.977-2.799 17.834-5.01.54-.2 1.136-.411 1.764-.633 3.927-1.366 9.309-3.244 11.79-7.476 1.864-3.177.585-7.198-3.264-10.264-5.008-3.988-10.257-7.688-15.33-11.265-7.787-5.487-15.849-11.175-22.918-17.851a142.333 142.333 0 01-9.309-9.676l-.32-.366c-.132-.156-.264-.3-.386-.445a75.506 75.506 0 0022.367-6.02c.474-.212 1.356-.6 2.139-1.422 1.346-1.411 1.908-3.2 1.556-5.033-.585-3.088-3.552-5.72-9.64-8.52a147.235 147.235 0 01-24.054-13.941c-.926-.667-1.852-1.322-2.79-1.989-5.999-4.265-12.209-8.675-17.425-13.608a24.02 24.02 0 01-1.202-1.188c5.194-1.333 10.532-2.744 15.605-4.91.894-.378 3.265-1.4 4.39-3.922 1.5-3.365-.033-6.754-13.08-17.907-7.434-6.354-16.841-13.685-23.712-19.029-4.467-3.477-8.327-6.476-9.32-7.42-1.389-1.311-3.099-2.933-5.371-3.788-.849-.311-1.676-.467-2.492-.467m0-2.222c1.092 0 2.183.2 3.264.6 2.691 1.011 4.676 2.877 6.11 4.244.916.866 4.897 3.966 9.11 7.243l-1.268 1.821 1.345-1.755c6.882 5.355 16.301 12.686 23.756 19.063 12.948 11.086 15.893 15.496 13.665 20.506-1.478 3.322-4.533 4.632-5.536 5.055-3.894 1.666-7.93 2.899-12.055 4.01 4.742 4.21 10.191 8.076 15.473 11.842.949.666 1.875 1.333 2.802 1.999a144.395 144.395 0 0023.69 13.73c6.805 3.133 10.168 6.254 10.896 10.12.474 2.533-.309 5.077-2.139 6.988-1.092 1.133-2.272 1.655-2.835 1.91a77.623 77.623 0 01-18.837 5.632c2.283 2.5 4.665 4.921 7.103 7.232 6.948 6.576 14.944 12.208 22.664 17.652 5.095 3.588 10.367 7.309 15.429 11.341 4.765 3.8 6.253 8.954 3.794 13.142-2.901 4.921-8.724 6.954-12.97 8.442l-.099.034c-.574.2-1.114.389-1.61.577-5.989 2.255-12.143 3.7-18.099 5.088-11.37 2.655-31.52 5.943-44.258 6.643h-.342c-3.221 0-5.868-2.544-6.044-5.776-.176-3.366 2.393-6.255 5.735-6.432 12.088-.656 31.289-3.799 42.152-6.343 5.581-1.3 11.338-2.644 16.599-4.633a57.605 57.605 0 011.996-.711c1.158-.399 2.79-.977 4.158-1.599-4.357-3.388-8.945-6.621-13.389-9.754-8.073-5.698-16.422-11.586-24.021-18.751a152.028 152.028 0 01-9.959-10.364l-.276-.311c-2.173-2.444-6.22-7.01-4.18-12.031.541-1.322 2.327-4.443 7.257-4.765a65.877 65.877 0 0015.043-2.766 156.55 156.55 0 01-24.484-14.331l-2.768-1.977c-6.275-4.466-12.771-9.076-18.495-14.474-1.599-1.5-4.908-4.633-5.669-9.254-.287-1.744-.022-3.355.794-4.777.927-1.61 2.449-2.721 4.39-3.221l2.58-.655c3.761-.956 7.621-1.944 11.261-3.189-7.191-7.031-23.867-20.006-30.616-25.261-5.879-4.576-8.757-6.831-10.059-8.053-.308-.289-.661-.634-1.003-.933-1.346 1.433-4.544 5.776-10.069 18.595-.42.967-.75 1.744-.982 2.244-.54 1.167-1.599 3.2-2.923 5.755-2.084 4.01-7.797 15.007-10.444 21.65 3.849-.344 7.808-1.011 11.657-1.666l2.636-.444a7.746 7.746 0 011.313-.112c1.478 0 2.823.434 3.992 1.289 1.302.955 2.206 2.355 2.636 4.055 1.147 4.532-.64 8.742-1.489 10.764-3.088 7.276-7.18 14.141-11.15 20.773l-1.731 2.911a157.932 157.932 0 01-16.676 23.039c5.073-.6 10.058-1.8 14.878-3.566 1.158-.422 2.305-.644 3.386-.644 1.963 0 3.805.733 5.161 2.055 3.882 3.777 1.996 9.586.982 12.708l-.133.4a154.503 154.503 0 01-4.963 13.519c-4.069 9.642-9.363 18.418-14.48 26.905-2.813 4.677-5.724 9.498-8.349 14.363h.386c1.378 0 2.867-.122 4.069-.222a57.94 57.94 0 012.107-.155c5.603-.322 11.415-1.422 17.039-2.5 7.346-1.399 17.691-3.943 26.999-6.643a6.216 6.216 0 011.687-.244c2.691 0 5.085 1.822 5.824 4.421a6.087 6.087 0 01-.519 4.644 5.983 5.983 0 01-3.628 2.91c-9.639 2.799-20.404 5.443-28.102 6.91-6.01 1.144-12.22 2.332-18.605 2.688-.552.033-1.158.078-1.809.133-1.5.122-3.198.267-4.996.267-4.356 0-7.709-.889-10.257-2.722-3.926-2.832-4.632-8.154-1.787-13.563 3.022-5.732 6.353-11.276 9.574-16.63 4.896-8.131 9.959-16.53 13.697-25.372a139.706 139.706 0 003.607-9.498 77.247 77.247 0 01-19.488 2.488c-.618 0-1.908 0-3.353-.599-2.448-1-4.18-3.022-4.764-5.532-.883-3.833.948-8.065 5.944-13.72a146.44 146.44 0 0016.168-22.15l1.754-2.933c3.342-5.587 6.783-11.353 9.441-17.14-4.224.655-8.404 1.166-12.628 1.222h-.386c-2.724 0-4.974-.8-6.717-2.389-5.117-4.665-2.305-12.164 10.797-37.369 1.213-2.344 2.261-4.355 2.68-5.266.199-.433.486-1.088.838-1.91C162.697 141.108 169.104 128 178.06 128l-.044.044z" fill="#25C6F9"/></g><defs><filter id="filter0_d_70_1539" x=".154" y=".154" width="423.309" height="455.336" filterUnits="userSpaceOnUse" color-interpolation-filters="sRGB"><feFlood flood-opacity="0" result="BackgroundImageFix"/><feColorMatrix in="SourceAlpha" values="0 0 0 0 0 0 0 0 0 0 0 0 0 0 0 0 0 0 127 0" result="hardAlpha"/><feOffset/><feGaussianBlur stdDeviation="63.923"/><feColorMatrix values="0 0 0 0 0.223529 0 0 0 0 0.705882 0 0 0 0 0.290196 0 0 0 1 0"/><feBlend in2="BackgroundImageFix" result="effect1_dropShadow_70_1539"/><feBlend in="SourceGraphic" in2="effect1_dropShadow_70_1539" result="shape"/></filter><filter id="filter1_d_70_1539" x="68.338" y="68.338" width="286.94" height="318.967" filterUnits="userSpaceOnUse" color-interpolation-filters="sRGB"><feFlood flood-opacity="0" result="BackgroundImageFix"/><feColorMatrix in="SourceAlpha" values="0 0 0 0 0 0 0 0 0 0 0 0 0 0 0 0 0 0 127 0" result="hardAlpha"/><feOffset/><feGaussianBlur stdDeviation="29.831"/><feColorMatrix values="0 0 0 0 0.14625 0 0 0 0 0.7761 0 0 0 0 0.975 0 0 0 1 0"/><feBlend in2="BackgroundImageFix" result="effect1_dropShadow_70_1539"/><feBlend in="SourceGraphic" in2="effect1_dropShadow_70_1539" result="shape"/></filter></defs></svg>