<svg width="150" height="21" fill="none" xmlns="http://www.w3.org/2000/svg"><mask id="a" style="mask-type:alpha" maskUnits="userSpaceOnUse" x="63" y="0" width="87" height="18"><path d="M63.096.47H150v17.375H63.096V.471z" fill="#fff"/></mask><g mask="url(#a)"><path fill-rule="evenodd" clip-rule="evenodd" d="M142.374 4.703c0-1.8 1.659-2.857 3.497-2.857a4.95 4.95 0 013.299 1.27l.512-.772A5.642 5.642 0 00145.913.97c-2.513 0-4.495 1.482-4.495 3.81 0 4.59 7.623 3.556 7.623 7.722 0 1.78-1.426 2.923-3.384 2.923a5.725 5.725 0 01-3.921-1.653l-.618.7a6.472 6.472 0 004.516 1.841c2.72 0 4.368-1.692 4.368-3.916-.005-4.86-7.628-3.783-7.628-7.721v.027zm-13.045 4.278h5.942v-.873h-5.942V2.031h7.243v-.845h-8.16V16h8.55v-.846h-7.631V8.981h-.002zM116.06.486c-4.342-.052-7.906 3.404-7.958 7.72-.002.087-.001.175.001.262a8.354 8.354 0 001.88 5.366 5.358 5.358 0 01-2.114 3.919c3.641.528 5.63-1.375 5.728-1.467a8.05 8.05 0 002.463.386c4.523 0 7.962-3.599 7.962-8.2.103-4.316-3.333-7.896-7.675-8a8.407 8.407 0 00-.291 0l.004.014zM99.5 8.596h-4.037V2.03h3.407c1.193 0 1.663.108 2.087.297a3.003 3.003 0 011.748 2.857c-.011 2.012-1.247 3.41-3.206 3.41zm1.165.717V9.27c1.749-.385 2.985-1.97 2.985-4.085a3.788 3.788 0 00-2.067-3.555c-.599-.297-1.298-.445-2.686-.445h-4.362V16h.928V9.436h4.275l3.535 6.563h1.088l-3.345-6.178a2.97 2.97 0 00-.345-.509h-.006zm-18.651-.36h5.942v-.845H82.01V2.032h7.236v-.846h-8.16V16h8.548v-.846h-7.623l.004-6.2-.001-.001zm-8.547-.802h-9.458V1.2h-.913V16h.913V8.995h9.458V16h.916V1.186h-.916V8.15z" fill="#fff"/></g><mask id="b" style="mask-type:alpha" maskUnits="userSpaceOnUse" x="0" y="0" width="57" height="21"><path d="M0 .9h56.003v19.63H0V.9z" fill="#fff"/></mask><g mask="url(#b)"><path fill-rule="evenodd" clip-rule="evenodd" d="M17.886 16.182a2.18 2.18 0 00-2.18 2.18A2.182 2.182 0 0017.9 20.53a2.18 2.18 0 002.18-2.179 2.177 2.177 0 00-2.184-2.17h-.011v.001zm32.211-3.251c-.39-.003-.778.02-1.166.065v-.042c.436-.41.826-.865 1.166-1.355l5.829-8.197v-2.25H44.56v3.127h5.52c.39.002.78-.02 1.168-.062v.042a8.11 8.11 0 00-1.166 1.356l-5.79 8.15v2.293h11.712v-3.127h-5.907zM36.4 16.057h3.672V1.152H36.4v14.905zm-8.128-5.482c0 1.563-1.026 2.398-2.6 2.398-1.573 0-2.603-.835-2.603-2.399V1.152h-3.672v9.424c0 3.36 2.475 5.733 6.295 5.733s6.255-2.373 6.255-5.733V1.151h-3.675v9.424zm-14.066 2.354a7.562 7.562 0 001.492-4.415C15.698 4.236 12.485.9 7.848.9 3.215.9 0 4.236 0 8.514c0 2.904 1.402 5.405 3.706 6.726 1.8-2.63.144-.216 1.963-2.908A4.47 4.47 0 013.8 8.514c0-2.44 1.678-4.278 4.049-4.278 2.308 0 4.049 1.838 4.049 4.278a4.865 4.865 0 01-.39 1.93l-1.49-1.436-2.057 2.317 1.524 1.316c2.49 2.317.183.163 2.685 2.44l1.554 1.437 2.076-2.317-1.595-1.27v-.002z" fill="#fff"/></g></svg>