<svg width="133" height="27" fill="none" xmlns="http://www.w3.org/2000/svg"><path d="M0 21.396V8.768h3.35v1.405a3.94 3.94 0 011.436-1.262 4.215 4.215 0 011.915-.436c.474-.016.946.075 1.38.266v2.933a4.051 4.051 0 00-.81-.253 4.608 4.608 0 00-.884-.084 3.347 3.347 0 00-1.768.479c-.54.339-.979.818-1.269 1.386v8.194H0zm14.73.243a5.114 5.114 0 01-2.58-.642 4.523 4.523 0 01-1.756-1.794 5.335 5.335 0 01-.63-2.607V8.769h3.296v7.343a2.647 2.647 0 00.718 1.94 2.58 2.58 0 001.914.718 3.231 3.231 0 001.498-.33c.433-.219.81-.534 1.101-.922v-8.75h3.32v12.629h-3.32v-1.018a5.244 5.244 0 01-3.56 1.26zm15.31-.072a6.194 6.194 0 01-3.237-.874 6.541 6.541 0 01-2.312-2.34 6.355 6.355 0 01-.861-3.282 6.417 6.417 0 013.2-5.613 6.48 6.48 0 013.316-.86c.609.001 1.214.09 1.797.264a6.64 6.64 0 011.635.74V4.428l3.32-.556v17.525h-3.272v-1.042a5.663 5.663 0 01-3.585 1.212zm.534-2.838a4.39 4.39 0 001.676-.313 3.809 3.809 0 001.333-.898v-4.92a3.827 3.827 0 00-1.338-.863 4.52 4.52 0 00-1.675-.304 3.762 3.762 0 00-1.879.479 3.527 3.527 0 00-1.321 1.298 3.799 3.799 0 00.014 3.733c.326.541.785.99 1.333 1.305a3.61 3.61 0 001.857.483zm12.94 2.885a5.47 5.47 0 01-2.377-.496 3.95 3.95 0 01-1.622-1.372 3.53 3.53 0 01-.582-2.011 3.31 3.31 0 011.357-2.823c.905-.67 2.164-1.006 3.779-1.006a9.365 9.365 0 013.11.508v-.92c0-.718-.224-1.276-.677-1.65-.452-.373-1.115-.557-1.986-.557-.582.01-1.16.095-1.72.256-.73.206-1.444.47-2.133.788l-1.196-2.474c.928-.41 1.889-.742 2.871-.994a11.174 11.174 0 012.712-.34c1.728 0 3.06.41 3.999 1.226.938.818 1.406 1.969 1.405 3.453v8.194H47.17v-.898a5.332 5.332 0 01-1.675.85 6.987 6.987 0 01-1.981.266zm-1.436-3.951a1.326 1.326 0 00.629 1.152 2.957 2.957 0 001.675.423 5.602 5.602 0 001.515-.194 3.85 3.85 0 001.27-.63v-1.843a5.373 5.373 0 00-1.258-.376 8.65 8.65 0 00-1.405-.108 3.265 3.265 0 00-1.78.412 1.31 1.31 0 00-.642 1.164h-.004zM64.2 26.58a13.033 13.033 0 01-2.837-.301 10.682 10.682 0 01-2.47-.862l1.173-2.567c.66.32 1.35.577 2.058.764.657.17 1.332.255 2.01.256.97 0 1.709-.215 2.22-.644.507-.429.763-1.063.763-1.904v-.994a5.79 5.79 0 01-3.466 1.116 6.335 6.335 0 01-5.547-3.187 6.376 6.376 0 01-.85-3.26 6.252 6.252 0 01.862-3.248 6.313 6.313 0 012.338-2.303 6.547 6.547 0 013.32-.848 6.279 6.279 0 011.758.264 5.803 5.803 0 011.599.74v-.834h3.295v12.604c0 1.665-.537 2.95-1.613 3.853-1.075.903-2.613 1.355-4.614 1.355zm-.025-7.925a4.333 4.333 0 001.647-.304 3.644 3.644 0 001.285-.86v-4.918a3.764 3.764 0 00-1.297-.838 4.449 4.449 0 00-1.623-.292 3.696 3.696 0 00-1.866.479c-.54.307-.991.75-1.307 1.286a3.438 3.438 0 00-.479 1.805 3.7 3.7 0 00.48 1.868 3.5 3.5 0 001.308 1.307 3.66 3.66 0 001.852.47v-.003zm12.865 2.96a5.462 5.462 0 01-2.374-.496 3.948 3.948 0 01-1.622-1.372 3.531 3.531 0 01-.582-2.01 3.311 3.311 0 011.357-2.824c.905-.67 2.164-1.005 3.779-1.005a9.362 9.362 0 013.111.507v-.92c0-.718-.227-1.276-.68-1.65-.452-.373-1.112-.557-1.986-.557-.582.01-1.16.096-1.72.256-.73.206-1.442.47-2.13.788l-1.197-2.473a18.53 18.53 0 012.867-.997 11.206 11.206 0 012.714-.34c1.728 0 3.06.41 3.996 1.226.937.818 1.406 1.969 1.408 3.453v8.196H80.7V20.5a5.317 5.317 0 01-1.676.85 6.96 6.96 0 01-1.984.266zm-1.436-3.95a1.324 1.324 0 00.63 1.151 2.945 2.945 0 001.675.424c.51.005 1.02-.06 1.513-.194a3.83 3.83 0 001.273-.63v-1.844a5.356 5.356 0 00-1.261-.375 8.65 8.65 0 00-1.405-.108 3.278 3.278 0 00-1.78.412 1.306 1.306 0 00-.625 1.163h-.02zm10.884 3.732V8.77h3.32v.958a5.105 5.105 0 015.504-.719c.64.325 1.19.804 1.599 1.394a5.21 5.21 0 011.842-1.406 5.61 5.61 0 012.35-.478 4.752 4.752 0 012.482.644 4.547 4.547 0 011.697 1.77c.424.8.637 1.697.618 2.604v7.854h-3.325v-7.337c0-.826-.213-1.475-.641-1.95a2.212 2.212 0 00-1.733-.72c-.471-.004-.938.1-1.364.305-.43.22-.794.55-1.053.957.014.147.031.293.048.436.017.154.025.308.024.463v7.853h-3.327v-7.343c0-.827-.213-1.476-.64-1.952a2.218 2.218 0 00-1.734-.718 3.026 3.026 0 00-1.345.29 2.66 2.66 0 00-1.004.873v8.85h-3.318zm28.129.242a6.784 6.784 0 01-5.863-3.235 6.227 6.227 0 01-.898-3.316 6.485 6.485 0 013.198-5.672 6.308 6.308 0 013.271-.872 5.98 5.98 0 013.236.883 6.248 6.248 0 012.228 2.412 7.34 7.34 0 01.811 3.488v.874h-9.353c.141.497.387.96.718 1.355.335.402.758.721 1.235.934a3.8 3.8 0 001.575.328 4.646 4.646 0 001.551-.256 3.346 3.346 0 001.237-.737l2.18 1.987a7.588 7.588 0 01-5.135 1.817l.009.01zm-3.418-7.806h6.156c-.12-.48-.34-.929-.644-1.32a3.169 3.169 0 00-1.076-.885 3.029 3.029 0 00-1.358-.314 3.208 3.208 0 00-1.405.302c-.417.2-.78.5-1.055.871a3.81 3.81 0 00-.618 1.346zm16.259 7.807a10.975 10.975 0 01-3.185-.448 8.122 8.122 0 01-2.582-1.274l1.649-2.23a9.975 9.975 0 002.096 1.093c.64.236 1.317.358 1.998.361.616.028 1.229-.1 1.781-.373.442-.253.664-.58.665-.982a.922.922 0 00-.376-.783 2.568 2.568 0 00-1.196-.414l-2.427-.355c-1.244-.194-2.193-.603-2.847-1.226a3.23 3.23 0 01-.982-2.459 3.572 3.572 0 01.644-2.133 4.053 4.053 0 011.829-1.382c.88-.337 1.818-.5 2.761-.478a9.718 9.718 0 012.726.385 8.66 8.66 0 012.484 1.197l-1.601 2.155a8.268 8.268 0 00-1.999-.946 6.49 6.49 0 00-1.9-.292c-.5-.02-.997.097-1.435.34a1.018 1.018 0 00-.558.898.937.937 0 00.4.788 3.03 3.03 0 001.308.438l2.423.34c1.26.177 2.218.581 2.872 1.212a3.162 3.162 0 01.993 2.394c.015.78-.238 1.54-.718 2.155a4.943 4.943 0 01-1.974 1.477 7.037 7.037 0 01-2.849.542zM48.642 3.068L46.297.722l-3.332 3.333 2.345 2.347 3.332-3.334z" fill="#fff"/></svg>