<svg width="104" height="29" fill="none" xmlns="http://www.w3.org/2000/svg"><path d="M25.934 5.839a13.92 13.92 0 011.699 2.769l-12.911 9.351-5.396-3.323v-3.998l5.396 3.323L25.934 5.84zM3.82 14.353c0-.179.004-.357.013-.534l-3.27-.158a13.679 13.679 0 001.06 6.024 13.874 13.874 0 003.073 4.514l2.32-2.278a10.662 10.662 0 01-2.367-3.47 10.511 10.511 0 01-.83-4.098zM14.718 3.644c.182 0 .364.007.544.015l.164-3.214a14.353 14.353 0 00-6.133 1.04c-1.72.7-3.283 1.727-4.598 3.022l2.32 2.279a10.875 10.875 0 013.532-2.327 11.03 11.03 0 014.17-.815zm.001 21.42c-.183 0-.364 0-.546-.015l-.163 3.213a14.341 14.341 0 006.132-1.04c1.718-.7 3.28-1.726 4.594-3.021l-2.315-2.278a10.88 10.88 0 01-3.532 2.325 11.031 11.031 0 01-4.17.816z" fill="#fff"/><path d="M20.863 5.513l2.756-1.996a14.266 14.266 0 00-8.904-3.09v3.217a10.98 10.98 0 016.148 1.87zm8.03 8.841a13.772 13.772 0 00-.222-2.496l-3.051 2.21v.286c0 1.496-.319 2.976-.937 4.344a10.691 10.691 0 01-2.654 3.593l2.2 2.39a13.903 13.903 0 003.45-4.677 13.682 13.682 0 001.214-5.65zM14.72 25.064c-1.524 0-3.03-.313-4.422-.92a10.87 10.87 0 01-3.658-2.608l-2.431 2.161a14.127 14.127 0 004.76 3.39c1.81.789 3.77 1.196 5.75 1.193v-3.216zM7.41 6.417l-2.2-2.39a13.902 13.902 0 00-3.45 4.677 13.683 13.683 0 00-1.215 5.65h3.274c0-1.496.319-2.976.938-4.343A10.693 10.693 0 017.41 6.417zm74.93 1.976l4.055-2.903H72.822v17.442h13.573v-2.903h-9.7v-4.467h8.275v-2.903h-8.275V8.393h5.645zm-18.652 3.892h-4.712V8.392h7.52L70.55 5.48H55.105v17.442h8.085c4.532 0 7.133-1.996 7.133-5.476 0-3.33-2.356-5.161-6.635-5.161zm-.673 7.734h-4.039v-4.833h4.04c2.45 0 3.6.81 3.6 2.416 0 1.607-1.223 2.417-3.6 2.417zM96.37 5.487h-7.388V22.93h3.873v-4.941h3.516c4.713 0 7.629-2.41 7.629-6.26 0-3.85-2.916-6.24-7.63-6.24zm-.081 9.596h-3.434V8.392h3.434c2.48 0 3.848 1.189 3.848 3.347s-1.369 3.344-3.848 3.344zm-46.994 3.73c-1 .526-2.121.799-3.259.792-3.404 0-5.874-2.361-5.874-5.612 0-3.252 2.47-5.618 5.874-5.618a5.875 5.875 0 013.432 1.032l2.708-1.938-.183-.126c-1.58-1.35-3.691-2.065-6.108-2.065-2.621 0-4.998.857-6.695 2.416a8.418 8.418 0 00-1.993 2.837 8.213 8.213 0 00-.663 3.374 8.486 8.486 0 00.66 3.412 8.688 8.688 0 001.98 2.89c1.705 1.62 4.077 2.513 6.68 2.513 2.719 0 5.096-.921 6.705-2.599l-2.425-1.754-.839.446z" fill="#fff"/></svg>