<svg width="183" height="153" fill="none" xmlns="http://www.w3.org/2000/svg"><path d="M9.865 152.501a1 1 0 01-1.366.365l-7.792-4.505a1 1 0 111.001-1.731l6.926 4.004 4.004-6.926a1 1 0 111.732 1.001l-4.505 7.792zM181.636 13.932C128.188-6.95 78.578 2.525 45.698 29.647 12.822 56.764-3.437 101.608 9.965 151.742l-1.932.516c-13.598-50.866 2.893-96.522 36.392-124.154C77.92.475 128.31-9.05 182.363 12.069l-.727 1.863z" fill="url(#paint0_linear_70_1466)"/><defs><linearGradient id="paint0_linear_70_1466" x1="125.744" y1="32.536" x2="-8.479" y2="110.03" gradientUnits="userSpaceOnUse"><stop stop-color="#800BF5"/><stop offset="1" stop-color="#25C6F9"/></linearGradient></defs></svg>