<svg width="282" height="284" fill="none" xmlns="http://www.w3.org/2000/svg"><g filter="url(#filter0_d_70_1532)"><path d="M131.287 224.782a11.78 11.78 0 01-2.463-.256c-4.571-.926-8.157-4.315-9.359-8.827l-10.974-41.514-40.43-14.481a12.098 12.098 0 01-7.98-10.068c-.532-4.631 1.576-9.083 5.497-11.625l36.096-23.269 1.28-42.913c.138-4.67 2.857-8.767 7.113-10.718 4.236-1.93 9.122-1.32 12.748 1.636l33.278 27.13 41.218-12.038c4.492-1.3 9.221 0 12.373 3.448 3.153 3.448 4.079 8.275 2.384 12.63l-15.526 40.035 24.195 35.485c2.621 3.862 2.838 8.787.532 12.846-2.285 4.059-6.6 6.423-11.27 6.167l-42.873-2.384-26.264 33.968a12.072 12.072 0 01-9.595 4.728l.02.02zm-55.463-76.939l38.144 13.673a12.21 12.21 0 017.665 8.354l10.363 39.169 24.786-32.056c2.443-3.172 6.325-4.926 10.305-4.709l40.45 2.246-22.816-33.475a12.17 12.17 0 01-1.301-11.25l14.64-37.77-38.894 11.368a12.222 12.222 0 01-11.112-2.246l-31.406-25.594-1.222 40.489c-.118 4-2.206 7.704-5.576 9.871l-34.046 21.949.02-.019z" fill="#FFF8C4"/></g><g filter="url(#filter1_d_70_1532)"><path d="M131.287 224.782a11.78 11.78 0 01-2.463-.256c-4.571-.926-8.157-4.315-9.359-8.827l-10.974-41.514-40.43-14.481a12.098 12.098 0 01-7.98-10.068c-.532-4.631 1.576-9.083 5.497-11.625l36.096-23.269 1.28-42.913c.138-4.67 2.857-8.767 7.113-10.718 4.236-1.93 9.122-1.32 12.748 1.636l33.278 27.13 41.218-12.038c4.492-1.3 9.221 0 12.373 3.448 3.153 3.448 4.079 8.275 2.384 12.63l-15.526 40.035 24.195 35.485c2.621 3.862 2.838 8.787.532 12.846-2.285 4.059-6.6 6.423-11.27 6.167l-42.873-2.384-26.264 33.968a12.072 12.072 0 01-9.595 4.728l.02.02zm-55.463-76.939l38.144 13.673a12.21 12.21 0 017.665 8.354l10.363 39.169 24.786-32.056c2.443-3.172 6.325-4.926 10.305-4.709l40.45 2.246-22.816-33.475a12.17 12.17 0 01-1.301-11.25l14.64-37.77-38.894 11.368a12.222 12.222 0 01-11.112-2.246l-31.406-25.594-1.222 40.489c-.118 4-2.206 7.704-5.576 9.871l-34.046 21.949.02-.019z" fill="#FFF8C4" stroke="#FFD359" stroke-width="3.941" stroke-miterlimit="10"/></g><defs><filter id="filter0_d_70_1532" x=".892" y=".892" width="281.078" height="282.998" filterUnits="userSpaceOnUse" color-interpolation-filters="sRGB"><feFlood flood-opacity="0" result="BackgroundImageFix"/><feColorMatrix in="SourceAlpha" values="0 0 0 0 0 0 0 0 0 0 0 0 0 0 0 0 0 0 127 0" result="hardAlpha"/><feOffset/><feGaussianBlur stdDeviation="29.554"/><feColorMatrix values="0 0 0 0 1 0 0 0 0 0.827451 0 0 0 0 0.34902 0 0 0 1 0"/><feBlend in2="BackgroundImageFix" result="effect1_dropShadow_70_1532"/><feBlend in="SourceGraphic" in2="effect1_dropShadow_70_1532" result="shape"/></filter><filter id="filter1_d_70_1532" x="30.445" y="30.446" width="221.97" height="223.89" filterUnits="userSpaceOnUse" color-interpolation-filters="sRGB"><feFlood flood-opacity="0" result="BackgroundImageFix"/><feColorMatrix in="SourceAlpha" values="0 0 0 0 0 0 0 0 0 0 0 0 0 0 0 0 0 0 127 0" result="hardAlpha"/><feOffset/><feGaussianBlur stdDeviation="13.792"/><feColorMatrix values="0 0 0 0 1 0 0 0 0 0.827451 0 0 0 0 0.34902 0 0 0 1 0"/><feBlend in2="BackgroundImageFix" result="effect1_dropShadow_70_1532"/><feBlend in="SourceGraphic" in2="effect1_dropShadow_70_1532" result="shape"/></filter></defs></svg>