<svg width="233" height="120" fill="none" xmlns="http://www.w3.org/2000/svg"><path d="M224.283 119.298a.999.999 0 001.414 0l6.364-6.364a.999.999 0 10-1.414-1.414l-5.657 5.657-5.657-5.657a1 1 0 00-1.414 1.414l6.364 6.364zM2.008 33.362C67.53-5.28 123.026-3.331 162.091 17.865c39.113 21.222 61.899 61.802 61.899 100.726h2c0-39.667-23.196-80.916-62.946-102.484C123.246-5.486 66.996-7.287.992 31.64l1.016 1.723z" fill="url(#paint0_linear_70_1468)"/><defs><linearGradient id="paint0_linear_70_1468" x1="79.642" y1="23.338" x2="224.435" y2="106.934" gradientUnits="userSpaceOnUse"><stop stop-color="#800BF5"/><stop offset="1" stop-color="#25C6F9"/></linearGradient></defs></svg>