<svg width="39" height="40" fill="none" xmlns="http://www.w3.org/2000/svg"><path fill-rule="evenodd" clip-rule="evenodd" d="M37.52 39.501H1.48A1.48 1.48 0 010 38.021V1.978C0 1.161.663.5 1.48.5h36.04c.817 0 1.48.662 1.48 1.48v36.04a1.48 1.48 0 01-1.48 1.481zm-6.94-26.736h-3.068a.236.236 0 00-.238.233v14c0 .128.107.232.238.232h3.068c.13 0 .238-.104.238-.232v-14a.237.237 0 00-.238-.233zm-10.476 0H8.418a.235.235 0 00-.237.233v14c0 .128.106.232.237.232h3.069c.13 0 .239-.104.239-.232V16.01c0-.127.105-.232.237-.232h6.61c1.86 0 2.387 1.424 2.387 2.343v8.877c0 .128.107.232.238.232h3.067c.13 0 .238-.104.238-.232v-9.931c0-.82-.099-1.998-1.155-3.034-1.106-1.083-2.115-1.268-3.243-1.268zm-5.372 5.576h3.222c.13 0 .237.105.237.233v8.425a.235.235 0 01-.237.232h-3.222a.237.237 0 01-.239-.232v-8.425c0-.128.108-.233.24-.233z" fill="#fff"/></svg>