<svg width="142" height="152" fill="none" xmlns="http://www.w3.org/2000/svg"><g filter="url(#filter0_d_70_1369)"><path d="M87.365 122.924c1.14.897 2.547 1.64 4.018 1.899 4.056.711 7.185-3.646 8.374-7.588 8.535-28.31 15.779-77.868-12.387-90.623C57 12.86 40.658 65.623 36.283 93.725c-1.463 8.37-.692 22.506 14.098 12.086.532-.3 1.716-1.611 2.246-1.673.23-.027.065 1.559.057 1.714-.253 7.432 2.24 18.533 14.237 3.482.375-.424.783-1.259 1.21-1.574.17-.125.073.415.109.623l.154.885c.11.641.097 1.221.152 1.859.119 1.394.287 2.75.528 4.138.235 1.354.518 2.639 1.371 3.741.879 1.135 2.042 1.449 3.316 1.95 2.553 1.005 4.742-.248 6.455-2.023 1.256-1.301 2.435-3.011 3.408-4.561.488-.776 1.256-1.775 2.037-2.299.19-.127.184 2.55.175 2.857-.065 2.174-.386 6.489 1.529 7.994z" fill="url(#paint0_linear_70_1369)"/></g><circle cx="91.705" cy="62.559" r="2.975" transform="rotate(15 91.705 62.559)" fill="#14063D"/><circle cx="67.281" cy="56.015" r="2.975" transform="rotate(15 67.281 56.015)" fill="#14063D"/><path d="M83.672 75.291c-.992 3.703-4.905 5.871-8.74 4.844-3.834-1.028-6.139-4.862-5.147-8.565" stroke="#14063D" stroke-width="2.975" stroke-linecap="round"/><defs><linearGradient id="paint0_linear_70_1369" x1="43.391" y1="96.521" x2="113.156" y2="68.014" gradientUnits="userSpaceOnUse"><stop stop-color="#EE6300"/><stop offset="1" stop-color="#E9EE00"/></linearGradient><filter id="filter0_d_70_1369" x="11.766" y=".366" width="119.629" height="148.533" filterUnits="userSpaceOnUse" color-interpolation-filters="sRGB"><feFlood flood-opacity="0" result="BackgroundImageFix"/><feColorMatrix in="SourceAlpha" values="0 0 0 0 0 0 0 0 0 0 0 0 0 0 0 0 0 0 127 0" result="hardAlpha"/><feOffset/><feGaussianBlur stdDeviation="12"/><feComposite in2="hardAlpha" operator="out"/><feColorMatrix values="0 0 0 0 0.945223 0 0 0 0 0.452986 0 0 0 0 0.102399 0 0 0 1 0"/><feBlend in2="BackgroundImageFix" result="effect1_dropShadow_70_1369"/><feBlend in="SourceGraphic" in2="effect1_dropShadow_70_1369" result="shape"/></filter></defs></svg>