<svg width="24" height="24" fill="none" xmlns="http://www.w3.org/2000/svg"><path d="M20.82 8.4s-.175-1.241-.716-1.786c-.686-.718-1.452-.721-1.804-.763-2.517-.183-6.296-.183-6.296-.183h-.008s-3.779 0-6.296.183c-.352.042-1.118.045-1.804.763-.54.545-.713 1.786-.713 1.786S3 9.859 3 11.314v1.364c0 1.456.18 2.915.18 2.915s.175 1.24.713 1.785c.686.718 1.586.693 1.986.77 1.442.137 6.121.18 6.121.18s3.783-.007 6.3-.187c.352-.042 1.118-.045 1.803-.762.542-.545.718-1.786.718-1.786S21 14.137 21 12.678v-1.364c0-1.455-.18-2.914-.18-2.914zm-10.68 5.934V9.275l4.862 2.538-4.862 2.521z" fill="#fff"/></svg>